<svg width="205" height="205" viewBox="0 0 205 205" fill="none" xmlns="http://www.w3.org/2000/svg">
<rect x="4.2439" y="4.24414" width="20.5122" height="20.5122" rx="10.2561" fill="#885CD0"/>
<rect x="48.2439" y="4.24414" width="20.5122" height="20.5122" rx="10.2561" fill="#885CD0"/>
<rect x="92.2439" y="4.24414" width="20.5122" height="20.5122" rx="10.2561" fill="#885CD0"/>
<rect x="136.244" y="4.24414" width="20.5122" height="20.5122" rx="10.2561" fill="#885CD0"/>
<rect x="180.244" y="4.24414" width="20.5122" height="20.5122" rx="10.2561" fill="#885CD0"/>
<rect x="4.2439" y="48.2441" width="20.5122" height="20.5122" rx="10.2561" fill="#885CD0"/>
<rect x="48.2439" y="48.2441" width="20.5122" height="20.5122" rx="10.2561" fill="#885CD0"/>
<rect x="92.2439" y="48.2441" width="20.5122" height="20.5122" rx="10.2561" fill="#885CD0"/>
<rect x="136.244" y="48.2441" width="20.5122" height="20.5122" rx="10.2561" fill="#885CD0"/>
<rect x="180.244" y="48.2441" width="20.5122" height="20.5122" rx="10.2561" fill="#885CD0"/>
<rect x="4.2439" y="92.2441" width="20.5122" height="20.5122" rx="10.2561" fill="#885CD0"/>
<rect x="48.2439" y="92.2441" width="20.5122" height="20.5122" rx="10.2561" fill="#885CD0"/>
<rect x="92.2439" y="92.2441" width="20.5122" height="20.5122" rx="10.2561" fill="#885CD0"/>
<rect x="136.244" y="92.2441" width="20.5122" height="20.5122" rx="10.2561" fill="#885CD0"/>
<rect x="180.244" y="92.2441" width="20.5122" height="20.5122" rx="10.2561" fill="#885CD0"/>
<rect x="4.2439" y="136.244" width="20.5122" height="20.5122" rx="10.2561" fill="#885CD0"/>
<rect x="48.2439" y="136.244" width="20.5122" height="20.5122" rx="10.2561" fill="#885CD0"/>
<rect x="92.2439" y="136.244" width="20.5122" height="20.5122" rx="10.2561" fill="#885CD0"/>
<rect x="136.244" y="136.244" width="20.5122" height="20.5122" rx="10.2561" fill="#885CD0"/>
<rect x="180.244" y="136.244" width="20.5122" height="20.5122" rx="10.2561" fill="#885CD0"/>
<rect x="4.2439" y="180.244" width="20.5122" height="20.5122" rx="10.2561" fill="#885CD0"/>
<rect x="48.2439" y="180.244" width="20.5122" height="20.5122" rx="10.2561" fill="#885CD0"/>
<rect x="92.2439" y="180.244" width="20.5122" height="20.5122" rx="10.2561" fill="#885CD0"/>
<rect x="136.244" y="180.244" width="20.5122" height="20.5122" rx="10.2561" fill="#885CD0"/>
<rect x="180.244" y="180.244" width="20.5122" height="20.5122" rx="10.2561" fill="#885CD0"/>
</svg>
