<svg width="245" height="290" viewBox="0 0 245 290" fill="none" xmlns="http://www.w3.org/2000/svg">
<rect x="144.957" y="6.00178" width="20.5122" height="20.5122" transform="rotate(45 144.957 6.00178)" fill="#885CD0"/>
<rect x="176.07" y="37.1145" width="20.5122" height="20.5122" transform="rotate(45 176.07 37.1145)" fill="#885CD0"/>
<rect x="207.182" y="68.2272" width="20.5122" height="20.5122" transform="rotate(45 207.182 68.2272)" fill="#885CD0"/>
<rect x="238.295" y="99.3399" width="20.5122" height="20.5122" transform="rotate(45 238.295 99.3399)" fill="#885CD0"/>
<rect x="113.844" y="37.1145" width="20.5122" height="20.5122" transform="rotate(45 113.844 37.1145)" fill="#885CD0"/>
<rect x="144.957" y="68.2272" width="20.5122" height="20.5122" transform="rotate(45 144.957 68.2272)" fill="#885CD0"/>
<rect x="176.07" y="99.3399" width="20.5122" height="20.5122" transform="rotate(45 176.07 99.3399)" fill="#885CD0"/>
<rect x="207.182" y="130.453" width="20.5122" height="20.5122" transform="rotate(45 207.182 130.453)" fill="#885CD0"/>
<rect x="238.295" y="161.565" width="20.5122" height="20.5122" transform="rotate(45 238.295 161.565)" fill="#885CD0"/>
<rect x="82.7316" y="68.2272" width="20.5122" height="20.5122" transform="rotate(45 82.7316 68.2272)" fill="#885CD0"/>
<rect x="113.844" y="99.3399" width="20.5122" height="20.5122" transform="rotate(45 113.844 99.3399)" fill="#885CD0"/>
<rect x="144.957" y="130.453" width="20.5122" height="20.5122" transform="rotate(45 144.957 130.453)" fill="#885CD0"/>
<rect x="176.07" y="161.565" width="20.5122" height="20.5122" transform="rotate(45 176.07 161.565)" fill="#885CD0"/>
<rect x="207.182" y="192.678" width="20.5122" height="20.5122" transform="rotate(45 207.182 192.678)" fill="#885CD0"/>
<rect x="51.6188" y="99.3399" width="20.5122" height="20.5122" transform="rotate(45 51.6188 99.3399)" fill="#885CD0"/>
<rect x="82.7316" y="130.453" width="20.5122" height="20.5122" transform="rotate(45 82.7316 130.453)" fill="#885CD0"/>
<rect x="113.844" y="161.565" width="20.5122" height="20.5122" transform="rotate(45 113.844 161.565)" fill="#885CD0"/>
<rect x="144.957" y="192.678" width="20.5122" height="20.5122" transform="rotate(45 144.957 192.678)" fill="#885CD0"/>
<rect x="176.07" y="223.791" width="20.5122" height="20.5122" transform="rotate(45 176.07 223.791)" fill="#885CD0"/>
<rect x="20.5061" y="130.453" width="20.5122" height="20.5122" transform="rotate(45 20.5061 130.453)" fill="#885CD0"/>
<rect x="51.6188" y="161.565" width="20.5122" height="20.5122" transform="rotate(45 51.6188 161.565)" fill="#885CD0"/>
<rect x="82.7314" y="192.678" width="20.5122" height="20.5122" transform="rotate(45 82.7314 192.678)" fill="#885CD0"/>
<rect x="113.844" y="223.791" width="20.5122" height="20.5122" transform="rotate(45 113.844 223.791)" fill="#885CD0"/>
<rect x="144.957" y="254.903" width="20.5122" height="20.5122" transform="rotate(45 144.957 254.903)" fill="#885CD0"/>
</svg>
