<svg id="Camada_1" data-name="Camada 1" xmlns="http://www.w3.org/2000/svg" viewBox="0 0 388.22 369.79"><defs><style>.cls-1{fill:#0071bc;}.cls-2{fill:#fff;stroke:#0071bc;stroke-miterlimit:10;stroke-width:19px;}</style></defs><path class="cls-1" d="M549.08,226a56.13,56.13,0,0,0-49.49,89.06l39,53.44L585,321.39A56.13,56.13,0,0,0,549.08,226Zm-5.68,77.12a23.1,23.1,0,1,1,24.73-21.34A23.11,23.11,0,0,1,543.4,303.16Z" transform="translate(-212.91 -177.24)"/><polygon class="cls-1" points="3.1 184.76 3.1 369.76 310.32 369.79 308.1 224.76 149.77 338.46 3.1 184.76"/><path class="cls-2" d="M512.46,400.84c-11.89,22.58-31.39,54.72-57.81,81.15-27.4,27.4-57.74,43.89-89,47.35-29.89,3.38-63.54-8.13-91.77-36.36-39.82-39.82-55.18-87.85-50.66-135.13,4.36-42.45,26.65-85.06,63-121.42,27-27,52.62-42.84,65.11-47.35l28.31,58.26c-12.42,4.89-33.43,17.17-51.34,35.08-18.52,18.52-30.34,39.07-34.18,59.32-4.74,29.59,5,63.16,32.82,90.94,31.92,31.92,65.5,24.69,91.77-1.58,9.26-9.26,13.25-15.51,15.73-21l-28.23-41.63-27.4,27.4L346.17,347l77.24-77.23Z" transform="translate(-212.91 -177.24)"/></svg>