<svg width="361" height="392" viewBox="0 0 361 392" fill="none" xmlns="http://www.w3.org/2000/svg">
<rect width="361" height="392" rx="53" fill="url(#paint0_linear_15_274)"/>
<path d="M88.8415 104.64C85.3428 104.64 81.9935 104.149 78.7935 103.168C75.5935 102.144 73.0548 100.843 71.1775 99.264L74.0575 92.8C75.8495 94.208 78.0682 95.3813 80.7135 96.32C83.3588 97.2587 86.0682 97.728 88.8415 97.728C91.1882 97.728 93.0868 97.472 94.5375 96.96C95.9882 96.448 97.0548 95.7653 97.7375 94.912C98.4202 94.016 98.7615 93.0133 98.7615 91.904C98.7615 90.5387 98.2708 89.4507 97.2895 88.64C96.3082 87.7867 95.0282 87.1253 93.4495 86.656C91.9135 86.144 90.1855 85.6747 88.2655 85.248C86.3882 84.8213 84.4895 84.3307 82.5695 83.776C80.6922 83.1787 78.9642 82.432 77.3855 81.536C75.8495 80.5973 74.5908 79.36 73.6095 77.824C72.6282 76.288 72.1375 74.3253 72.1375 71.936C72.1375 69.504 72.7775 67.2853 74.0575 65.28C75.3802 63.232 77.3642 61.6107 80.0095 60.416C82.6975 59.1787 86.0895 58.56 90.1855 58.56C92.8735 58.56 95.5402 58.9013 98.1855 59.584C100.831 60.2667 103.135 61.248 105.097 62.528L102.474 68.992C100.468 67.7973 98.3988 66.9227 96.2655 66.368C94.1322 65.7707 92.0842 65.472 90.1215 65.472C87.8175 65.472 85.9402 65.7493 84.4895 66.304C83.0815 66.8587 82.0362 67.584 81.3535 68.48C80.7135 69.376 80.3935 70.4 80.3935 71.552C80.3935 72.9173 80.8628 74.0267 81.8015 74.88C82.7828 75.6907 84.0415 76.3307 85.5775 76.8C87.1562 77.2693 88.9055 77.7387 90.8255 78.208C92.7455 78.6347 94.6442 79.1253 96.5215 79.68C98.4415 80.2347 100.17 80.96 101.706 81.856C103.284 82.752 104.543 83.968 105.482 85.504C106.463 87.04 106.954 88.9813 106.954 91.328C106.954 93.7173 106.292 95.936 104.97 97.984C103.69 99.9893 101.706 101.611 99.0175 102.848C96.3295 104.043 92.9375 104.64 88.8415 104.64ZM129.796 104.448C126.297 104.448 123.182 103.701 120.452 102.208C117.721 100.672 115.566 98.5813 113.988 95.936C112.409 93.2907 111.62 90.2827 111.62 86.912C111.62 83.4987 112.409 80.4907 113.988 77.888C115.566 75.2427 117.721 73.1733 120.452 71.68C123.182 70.1867 126.297 69.44 129.796 69.44C133.337 69.44 136.473 70.1867 139.204 71.68C141.977 73.1733 144.132 75.2213 145.668 77.824C147.246 80.4267 148.036 83.456 148.036 86.912C148.036 90.2827 147.246 93.2907 145.668 95.936C144.132 98.5813 141.977 100.672 139.204 102.208C136.473 103.701 133.337 104.448 129.796 104.448ZM129.796 97.6C131.758 97.6 133.508 97.1733 135.044 96.32C136.58 95.4667 137.774 94.2293 138.628 92.608C139.524 90.9867 139.972 89.088 139.972 86.912C139.972 84.6933 139.524 82.7947 138.628 81.216C137.774 79.5947 136.58 78.3573 135.044 77.504C133.508 76.6507 131.78 76.224 129.86 76.224C127.897 76.224 126.148 76.6507 124.612 77.504C123.118 78.3573 121.924 79.5947 121.028 81.216C120.132 82.7947 119.684 84.6933 119.684 86.912C119.684 89.088 120.132 90.9867 121.028 92.608C121.924 94.2293 123.118 95.4667 124.612 96.32C126.148 97.1733 127.876 97.6 129.796 97.6ZM198.822 69.44C201.552 69.44 203.963 69.9733 206.054 71.04C208.187 72.1067 209.851 73.7493 211.046 75.968C212.24 78.144 212.838 80.96 212.838 84.416V104H204.838V85.44C204.838 82.4107 204.176 80.1493 202.854 78.656C201.531 77.1627 199.632 76.416 197.158 76.416C195.408 76.416 193.851 76.8 192.486 77.568C191.163 78.336 190.118 79.4667 189.35 80.96C188.624 82.4533 188.262 84.352 188.262 86.656V104H180.262V85.44C180.262 82.4107 179.6 80.1493 178.278 78.656C176.955 77.1627 175.056 76.416 172.582 76.416C170.832 76.416 169.275 76.8 167.91 77.568C166.587 78.336 165.542 79.4667 164.774 80.96C164.048 82.4533 163.686 84.352 163.686 86.656V104H155.686V69.824H163.302V78.912L161.958 76.224C163.11 74.0053 164.774 72.32 166.95 71.168C169.168 70.016 171.686 69.44 174.502 69.44C177.702 69.44 180.475 70.2293 182.822 71.808C185.211 73.3867 186.79 75.776 187.558 78.976L184.422 77.888C185.531 75.328 187.366 73.28 189.926 71.744C192.486 70.208 195.451 69.44 198.822 69.44ZM238.483 104.448C234.984 104.448 231.87 103.701 229.139 102.208C226.408 100.672 224.254 98.5813 222.675 95.936C221.096 93.2907 220.307 90.2827 220.307 86.912C220.307 83.4987 221.096 80.4907 222.675 77.888C224.254 75.2427 226.408 73.1733 229.139 71.68C231.87 70.1867 234.984 69.44 238.483 69.44C242.024 69.44 245.16 70.1867 247.891 71.68C250.664 73.1733 252.819 75.2213 254.355 77.824C255.934 80.4267 256.723 83.456 256.723 86.912C256.723 90.2827 255.934 93.2907 254.355 95.936C252.819 98.5813 250.664 100.672 247.891 102.208C245.16 103.701 242.024 104.448 238.483 104.448ZM238.483 97.6C240.446 97.6 242.195 97.1733 243.731 96.32C245.267 95.4667 246.462 94.2293 247.315 92.608C248.211 90.9867 248.659 89.088 248.659 86.912C248.659 84.6933 248.211 82.7947 247.315 81.216C246.462 79.5947 245.267 78.3573 243.731 77.504C242.195 76.6507 240.467 76.224 238.547 76.224C236.584 76.224 234.835 76.6507 233.299 77.504C231.806 78.3573 230.611 79.5947 229.715 81.216C228.819 82.7947 228.371 84.6933 228.371 86.912C228.371 89.088 228.819 90.9867 229.715 92.608C230.611 94.2293 231.806 95.4667 233.299 96.32C234.835 97.1733 236.563 97.6 238.483 97.6ZM274.933 104.448C272.074 104.448 269.322 104.085 266.677 103.36C264.074 102.592 262.005 101.675 260.469 100.608L263.541 94.528C265.077 95.5093 266.912 96.32 269.045 96.96C271.178 97.6 273.312 97.92 275.445 97.92C277.962 97.92 279.776 97.5787 280.885 96.896C282.037 96.2133 282.613 95.296 282.613 94.144C282.613 93.2053 282.229 92.5013 281.461 92.032C280.693 91.52 279.69 91.136 278.453 90.88C277.216 90.624 275.829 90.3893 274.293 90.176C272.8 89.9627 271.285 89.6853 269.749 89.344C268.256 88.96 266.89 88.4267 265.653 87.744C264.416 87.0187 263.413 86.0587 262.645 84.864C261.877 83.6693 261.493 82.0907 261.493 80.128C261.493 77.952 262.112 76.0747 263.349 74.496C264.586 72.8747 266.314 71.6373 268.533 70.784C270.794 69.888 273.461 69.44 276.533 69.44C278.837 69.44 281.162 69.696 283.509 70.208C285.856 70.72 287.797 71.4453 289.333 72.384L286.261 78.464C284.64 77.4827 282.997 76.8213 281.333 76.48C279.712 76.096 278.09 75.904 276.469 75.904C274.037 75.904 272.224 76.2667 271.029 76.992C269.877 77.7173 269.301 78.6347 269.301 79.744C269.301 80.768 269.685 81.536 270.453 82.048C271.221 82.56 272.224 82.9653 273.461 83.264C274.698 83.5627 276.064 83.8187 277.557 84.032C279.093 84.2027 280.608 84.48 282.101 84.864C283.594 85.248 284.96 85.7813 286.197 86.464C287.477 87.104 288.501 88.0213 289.269 89.216C290.037 90.4107 290.421 91.968 290.421 93.888C290.421 96.0213 289.781 97.8773 288.501 99.456C287.264 101.035 285.493 102.272 283.189 103.168C280.885 104.021 278.133 104.448 274.933 104.448Z" fill="white"/>
<path d="M115.156 196V149.875H125.375L138.406 172.344L151.438 149.875H161.844V196H153.156V161.906L141.625 182.594H135.406L123.844 162.688V196H115.156ZM181 196.719C178.125 196.719 175.781 195.885 173.969 194.219C172.177 192.552 171.281 190.333 171.281 187.562C171.281 185.979 171.604 184.573 172.25 183.344C172.896 182.115 174.073 180.979 175.781 179.938C177.49 178.875 179.938 177.844 183.125 176.844C185.729 176.01 187.646 175.24 188.875 174.531C190.125 173.823 190.75 172.885 190.75 171.719C190.75 170.365 190.344 169.354 189.531 168.688C188.74 168 187.385 167.656 185.469 167.656C183.344 167.656 181.938 168.073 181.25 168.906C180.583 169.74 180.25 170.802 180.25 172.094V173.406H172.281V172.406C172.281 169.156 173.365 166.562 175.531 164.625C177.698 162.688 181.073 161.719 185.656 161.719C189.01 161.719 191.667 162.188 193.625 163.125C195.583 164.062 196.99 165.385 197.844 167.094C198.698 168.781 199.125 170.781 199.125 173.094V186.375C199.125 187.896 199.312 188.896 199.688 189.375C200.083 189.833 200.802 190.062 201.844 190.062L201.5 196.25H199.719C197.385 196.25 195.573 195.927 194.281 195.281C192.99 194.635 192.042 193.635 191.438 192.281C190.542 193.469 189.188 194.51 187.375 195.406C185.583 196.281 183.458 196.719 181 196.719ZM183.844 191.062C184.885 191.062 186.104 190.771 187.5 190.188C188.896 189.604 189.979 188.708 190.75 187.5V179C190.188 179.458 189.292 179.969 188.062 180.531C186.833 181.073 185.51 181.604 184.094 182.125C182.24 182.812 181.021 183.573 180.438 184.406C179.854 185.24 179.562 186.135 179.562 187.094C179.562 188.448 179.958 189.448 180.75 190.094C181.542 190.74 182.573 191.062 183.844 191.062ZM208.344 162.438H216.812V196H208.344V162.438ZM208.281 148.656H216.844V156.938H208.281V148.656ZM224.094 194.094L225.812 188.312C227.604 189.083 229.479 189.698 231.438 190.156C233.417 190.594 235.229 190.812 236.875 190.812C238.417 190.812 239.562 190.448 240.312 189.719C241.062 188.969 241.438 187.948 241.438 186.656C241.438 185.677 241.219 184.917 240.781 184.375C240.365 183.812 239.635 183.365 238.594 183.031L231.219 180.719C228.573 179.885 226.75 178.656 225.75 177.031C224.771 175.406 224.281 173.469 224.281 171.219C224.281 168.01 225.406 165.625 227.656 164.062C229.927 162.5 232.823 161.719 236.344 161.719C239.219 161.719 241.656 162.021 243.656 162.625C245.656 163.229 247.26 163.875 248.469 164.562L246.469 169.844C245.823 169.49 244.969 169.146 243.906 168.812C242.844 168.479 241.708 168.208 240.5 168C239.312 167.771 238.188 167.656 237.125 167.656C235.333 167.656 234.104 167.969 233.438 168.594C232.771 169.219 232.438 170.083 232.438 171.188C232.438 171.896 232.604 172.521 232.938 173.062C233.271 173.583 233.865 173.979 234.719 174.25L241.656 176.438C244.49 177.333 246.458 178.583 247.562 180.188C248.667 181.792 249.219 183.906 249.219 186.531C249.219 189.365 248.219 191.771 246.219 193.75C244.219 195.729 241.208 196.719 237.188 196.719C234.354 196.719 231.896 196.5 229.812 196.062C227.75 195.646 225.844 194.99 224.094 194.094Z" fill="white"/>
<path d="M70.4062 244.219C70.4062 244.573 70.5729 244.812 70.9062 244.938C71.4062 244.375 72.1146 243.885 73.0312 243.469C73.9479 243.031 74.9792 242.812 76.125 242.812C78.3125 242.812 80.125 243.458 81.5625 244.75C81.5625 244.75 81.6354 244.812 81.7812 244.938C82.0521 244.792 82.1875 244.531 82.1875 244.156C82.1875 243.51 81.6771 242.896 80.6562 242.312C79.4688 241.667 77.9479 241.344 76.0938 241.344C75.5938 241.344 75.1354 241.385 74.7188 241.469V233.312C74.7188 232.417 74.4062 231.969 73.7812 231.969C73.1771 231.969 72.875 232.427 72.875 233.344V241.906C71.2292 242.573 70.4062 243.344 70.4062 244.219ZM72.9688 259.031C69.3646 259.031 66.0938 258.354 63.1562 257C60.2188 255.625 57.875 253.51 56.125 250.656C54.1667 247.427 53.1875 243.406 53.1875 238.594C53.1875 233.781 54.1875 229.729 56.1875 226.438C57.9792 223.479 60.4062 221.281 63.4688 219.844C66.5521 218.406 69.8646 217.688 73.4062 217.688C79.8646 217.688 84.9271 219.583 88.5938 223.375C92.2812 227.146 94.125 232.083 94.125 238.188C94.125 241.917 93.3333 245.188 91.75 248H96.2812C97.0312 250.25 97.4062 252.375 97.4062 254.375C97.4062 257.417 96.5625 259.865 94.875 261.719C93.1875 263.573 90.8333 264.5 87.8125 264.5C84.7917 264.5 82.2812 263.5 80.2812 261.5C78.3021 259.521 76.6875 256.385 75.4375 252.094H75.2812C74.6146 252.094 74.2812 252.427 74.2812 253.094C74.2812 254.344 74.9792 256.26 76.375 258.844C75.2917 258.969 74.1562 259.031 72.9688 259.031ZM114.75 245.375C115 245.375 115.271 245.271 115.562 245.062C115.354 244.375 115.25 243.302 115.25 241.844V226.406C117.458 225.073 120.115 224.406 123.219 224.406C124.969 224.406 126.5 224.646 127.812 225.125C129.146 225.583 130.167 226.198 130.875 226.969V243.25C130.875 246.354 131.625 248.375 133.125 249.312C133.146 249.417 133.156 249.615 133.156 249.906V250.469C133.156 253.51 132.354 255.812 130.75 257.375C129.292 258.833 127.281 259.562 124.719 259.562C123.115 259.562 121.656 259.198 120.344 258.469C119.052 257.74 118.083 256.677 117.438 255.281C116.729 255.281 116.375 255.625 116.375 256.312C116.375 256.792 116.615 257.271 117.094 257.75C116.427 258.292 115.625 258.729 114.688 259.062C113.75 259.396 112.365 259.562 110.531 259.562C108.719 259.562 106.948 259.188 105.219 258.438C103.073 257.521 101.427 256.115 100.281 254.219C98.8854 251.969 98.1875 249.115 98.1875 245.656V237.812C97.125 235.958 96.5938 233.917 96.5938 231.688C96.5938 230.542 96.7396 229.354 97.0312 228.125C97.3229 226.896 97.7917 225.802 98.4375 224.844H105.312C107.896 224.844 109.917 225.458 111.375 226.688C112.854 227.896 113.594 229.74 113.594 232.219V242.344C113.594 244.365 113.979 245.375 114.75 245.375ZM152.344 259.969C146.573 259.969 142.021 258.365 138.688 255.156C135.271 251.927 133.562 247.51 133.562 241.906C133.562 236.281 135.323 231.823 138.844 228.531C142.094 225.469 146.208 223.938 151.188 223.938C156.167 223.938 160.156 225.312 163.156 228.062C166.177 230.792 167.688 234.156 167.688 238.156C167.688 241.719 166.448 244.406 163.969 246.219C161.677 247.927 158.552 248.781 154.594 248.781C151.635 248.781 149.135 248.167 147.094 246.938C146.927 247.062 146.844 247.292 146.844 247.625C146.844 248.25 147.667 248.823 149.312 249.344C150.958 249.906 152.823 250.188 154.906 250.188C157.01 250.188 158.917 249.927 160.625 249.406C162.354 248.865 163.74 248.229 164.781 247.5C165.281 247.938 165.677 248.75 165.969 249.938C166.281 251.104 166.438 252.177 166.438 253.156C166.438 254.115 166.344 254.969 166.156 255.719C164.531 257.094 162.865 258.073 161.156 258.656C158.74 259.531 155.802 259.969 152.344 259.969ZM151.938 238.812C152.979 238.812 153.5 238.417 153.5 237.625C153.5 236.875 152.948 236.5 151.844 236.5C150.74 236.5 150.104 237.094 149.938 238.281C150.521 238.635 151.188 238.812 151.938 238.812ZM201.062 245.375C201.312 245.375 201.583 245.271 201.875 245.062C201.667 244.375 201.562 243.302 201.562 241.844V226.406C203.771 225.073 206.427 224.406 209.531 224.406C211.281 224.406 212.812 224.646 214.125 225.125C215.458 225.583 216.479 226.198 217.188 226.969V243.25C217.188 246.354 217.938 248.375 219.438 249.312C219.458 249.417 219.469 249.615 219.469 249.906V250.469C219.469 253.51 218.667 255.812 217.062 257.375C215.604 258.833 213.594 259.562 211.031 259.562C209.427 259.562 207.969 259.198 206.656 258.469C205.365 257.74 204.396 256.677 203.75 255.281C203.042 255.281 202.688 255.625 202.688 256.312C202.688 256.792 202.927 257.271 203.406 257.75C202.74 258.292 201.938 258.729 201 259.062C200.062 259.396 198.677 259.562 196.844 259.562C195.031 259.562 193.26 259.188 191.531 258.438C189.385 257.521 187.74 256.115 186.594 254.219C185.198 251.969 184.5 249.115 184.5 245.656V237.812C183.438 235.958 182.906 233.917 182.906 231.688C182.906 230.542 183.052 229.354 183.344 228.125C183.635 226.896 184.104 225.802 184.75 224.844H191.625C194.208 224.844 196.229 225.458 197.688 226.688C199.167 227.896 199.906 229.74 199.906 232.219V242.344C199.906 244.365 200.292 245.375 201.062 245.375ZM271.469 243.531C271.469 245.052 271.635 246.292 271.969 247.25C272.302 248.208 272.885 248.948 273.719 249.469C273.74 249.573 273.75 249.75 273.75 250V250.469C273.75 253.323 272.917 255.552 271.25 257.156C269.583 258.76 267.427 259.562 264.781 259.562C262.156 259.562 260.042 258.844 258.438 257.406C256.542 255.74 255.594 253.188 255.594 249.75V239.875C255.594 238.479 255.135 237.781 254.219 237.781C253.865 237.781 253.583 237.865 253.375 238.031L253.938 242.688V249.75C253.938 252.583 254.406 254.729 255.344 256.188C254.344 257.25 253.094 258.083 251.594 258.688C250.115 259.271 248.604 259.562 247.062 259.562C244.562 259.562 242.625 258.958 241.25 257.75C239.583 256.292 238.75 253.99 238.75 250.844V239.875C238.75 238.479 238.292 237.781 237.375 237.781C237.021 237.781 236.74 237.865 236.531 238.031L237.094 242.688V250.969C237.094 253.302 237.406 255.104 238.031 256.375C235.99 258.479 233.125 259.531 229.438 259.531C227.25 259.531 225.406 258.979 223.906 257.875C222.177 256.604 221.312 254.896 221.312 252.75V237.812C220.083 236.083 219.469 233.958 219.469 231.438C219.469 228.896 220.083 226.698 221.312 224.844H228.844C230.323 224.844 231.583 225.396 232.625 226.5C231.708 227.354 231.25 228.062 231.25 228.625C231.25 229.271 231.615 229.594 232.344 229.594C233.26 228.01 234.521 226.75 236.125 225.812C238 224.75 240.198 224.219 242.719 224.219C244.635 224.219 246.312 224.625 247.75 225.438C249.208 226.25 250.292 227.188 251 228.25C251.979 226.917 253.25 225.917 254.812 225.25C256.396 224.562 258.042 224.219 259.75 224.219C263.521 224.219 266.448 225.385 268.531 227.719C270.573 230.052 271.594 233.25 271.594 237.312L271.469 243.531ZM306.406 243.531C306.406 245.031 306.573 246.24 306.906 247.156C307.24 248.073 307.823 248.792 308.656 249.312C308.677 249.417 308.688 249.615 308.688 249.906V250.469C308.688 253.427 307.792 255.729 306 257.375C304.417 258.833 302.458 259.562 300.125 259.562C298.542 259.562 297.094 259.188 295.781 258.438C294.469 257.688 293.531 256.604 292.969 255.188C292.26 255.188 291.906 255.531 291.906 256.219C291.906 256.802 292.271 257.458 293 258.188C291.646 259.104 289.604 259.562 286.875 259.562C283.021 259.562 279.938 258.521 277.625 256.438C275.333 254.333 274.188 251.406 274.188 247.656C274.188 243.885 275.406 240.969 277.844 238.906C280.073 237.052 282.958 236.125 286.5 236.125C287.708 236.125 288.875 236.208 290 236.375C290.75 236.521 291.156 236.604 291.219 236.625C291.281 236.417 291.312 236.24 291.312 236.094C291.312 235.552 290.854 235.188 289.938 235C289.021 234.812 287.823 234.719 286.344 234.719C283.198 234.719 280.51 235.354 278.281 236.625C277.26 234.896 276.75 232.708 276.75 230.062C276.75 228.562 276.938 227.448 277.312 226.719C278.812 226.031 280.719 225.427 283.031 224.906C285.344 224.365 287.781 224.094 290.344 224.094C295.635 224.094 299.635 225.25 302.344 227.562C305.052 229.875 306.406 233.156 306.406 237.406V243.531ZM290.188 245.062C289.312 245.062 288.875 245.458 288.875 246.25C288.875 247 289.385 247.375 290.406 247.375C291.115 247.375 291.635 247.208 291.969 246.875C292.302 246.521 292.469 245.917 292.469 245.062C292.469 245.062 291.708 245.062 290.188 245.062Z" fill="white"/>
<path d="M69.5312 326.688C65.9688 326.688 62.1146 327.125 57.9688 328C58.4271 324.938 58.7604 321.677 58.9688 318.219C59.1979 314.74 59.3125 311.021 59.3125 307.062C59.3125 301.438 59.1979 296.75 58.9688 293C58.7604 289.25 58.4896 286.458 58.1562 284.625L57.9688 283.562C59.2396 283.417 60.5 283.125 61.75 282.688C63.0208 282.229 64.3854 281.594 65.8438 280.781C67.1562 281.219 68.4375 281.594 69.6875 281.906C70.9375 282.219 72.3646 282.375 73.9688 282.375C76.6979 282.375 79.6875 281.844 82.9375 280.781C81.4167 283.531 80.5833 286.156 80.4375 288.656C76.5625 288.448 73.3229 287.396 70.7188 285.5C69.4688 284.542 68.4271 283.729 67.5938 283.062C66.7812 282.375 66.1667 281.823 65.75 281.406C64.875 287.135 64.4375 294.021 64.4375 302.062V302.625C70.1875 302.333 75.1042 301.156 79.1875 299.094C78.7708 299.885 78.3542 300.969 77.9375 302.344C77.5417 303.698 77.2604 305.24 77.0938 306.969L76.25 306.719C73.875 306.01 70.3646 305.656 65.7188 305.656H64.4688C64.5521 314.198 64.8958 320.135 65.5 323.469C66.125 323.635 66.6146 323.719 66.9688 323.719C74.1354 323.719 80.0729 322.521 84.7812 320.125C84.4062 320.854 84.0104 321.844 83.5938 323.094C83.1979 324.323 82.8958 325.958 82.6875 328L81.875 327.75C79.6042 327.042 75.4896 326.688 69.5312 326.688ZM91.0312 328C91.8229 321.75 92.2188 316.562 92.2188 312.438C92.2188 310.375 92.2083 309.25 92.1875 309.062C92.1458 304.208 91.8125 299.844 91.1875 295.969L91.0312 295.469C93.5521 295.177 96.1042 294.292 98.6875 292.812L98.9062 292.688C98.4896 293.917 98.0417 295.333 97.5625 296.938L104.406 292.688C105.594 293 107.062 293.604 108.812 294.5C110.458 295.354 112.021 296.49 113.5 297.906L125.594 292.688C126.781 293 128.25 293.604 130 294.5C131.625 295.354 133.188 296.49 134.688 297.906C136.521 299.656 137.812 301.583 138.562 303.688C139.375 305.688 139.812 307.875 139.875 310.25C140.062 316.312 140.448 320.896 141.031 324L141.281 325.125C139.885 325.292 138.615 325.583 137.469 326C135.656 326.667 134.302 327.333 133.406 328C134.219 322.542 134.625 317.26 134.625 312.156C134.604 311.49 134.594 310.896 134.594 310.375C134.594 307.979 134.219 306.167 133.469 304.938C132.198 303.042 130.385 301.531 128.031 300.406C124.281 298.615 120.948 297.719 118.031 297.719C116.573 297.719 115.219 297.938 113.969 298.375C115.552 300.021 116.688 301.792 117.375 303.688C118.188 305.688 118.625 307.875 118.688 310.25C118.875 316.312 119.26 320.896 119.844 324L120.094 325.125C118.698 325.292 117.427 325.583 116.281 326C114.469 326.667 113.115 327.333 112.219 328C113.031 322.542 113.438 317.26 113.438 312.156C113.417 311.49 113.406 310.896 113.406 310.375C113.406 307.979 113.031 306.167 112.281 304.938C111.031 303.104 109.219 301.594 106.844 300.406C104.76 299.365 101.677 298.427 97.5938 297.594H97.5625C97.4167 299.115 97.3438 302.49 97.3438 307.719V308.812C97.3438 314.667 97.7812 319.729 98.6562 324L98.9062 325.125C97.4896 325.292 96.2188 325.583 95.0938 326C93.2812 326.667 91.9271 327.333 91.0312 328ZM155.688 314.031C156.729 316.865 158.583 319.125 161.25 320.812C162.979 321.938 166 322.854 170.312 323.562L170.344 323.531C170.552 323.135 170.812 322.521 171.125 321.688C171.438 320.854 171.729 319.927 172 318.906C172.292 317.865 172.531 316.792 172.719 315.688C172.927 314.562 173.031 313.521 173.031 312.562C173.031 311.5 172.875 310.396 172.562 309.25C172.25 308.083 171.771 306.958 171.125 305.875C170.5 304.771 169.688 303.75 168.688 302.812C167.708 301.854 166.531 301.052 165.156 300.406C164.135 299.927 162.885 299.458 161.406 299C159.948 298.542 158.25 298.094 156.312 297.656C155.875 301.927 155.625 306.75 155.562 312.125L155.688 314.031ZM149.094 339.906C149.552 336.76 149.885 333.448 150.094 329.969C150.323 326.49 150.438 322.802 150.438 318.906C150.417 313.406 150.302 308.792 150.094 305.062C149.906 301.333 149.635 298.49 149.281 296.531L149.094 295.469C150.344 295.323 151.604 295.031 152.875 294.594C154.146 294.135 155.51 293.5 156.969 292.688C156.865 293.312 156.771 293.948 156.688 294.594C156.604 295.24 156.521 295.896 156.438 296.562L162.688 292.688C163.312 292.854 164.031 293.115 164.844 293.469C165.677 293.802 166.51 294.208 167.344 294.688C168.198 295.146 169.01 295.656 169.781 296.219C170.573 296.76 171.24 297.323 171.781 297.906C172.594 298.781 173.323 299.688 173.969 300.625C174.615 301.542 175.167 302.51 175.625 303.531C176.083 304.552 176.427 305.625 176.656 306.75C176.885 307.875 177 309.083 177 310.375C176.854 311.75 176.688 312.938 176.5 313.938C176.333 314.917 176.083 315.833 175.75 316.688C175.438 317.542 175.01 318.396 174.469 319.25C173.948 320.083 173.25 321.042 172.375 322.125C172.167 322.375 171.906 322.635 171.594 322.906C171.281 323.177 170.917 323.479 170.5 323.812L163.875 328C162.896 327.833 161.688 327.417 160.25 326.75C158.833 326.062 157.354 325.083 155.812 323.812C155.896 325.812 156.021 327.823 156.188 329.844C156.354 331.865 156.552 333.938 156.781 336.062L156.969 337.031V337.125C155.698 337.271 154.427 337.562 153.156 338C151.906 338.458 150.552 339.094 149.094 339.906ZM184.781 328C185.177 324.854 185.469 322 185.656 319.438C185.865 316.854 185.969 314.521 185.969 312.438C185.969 310.75 185.948 309.177 185.906 307.719C185.885 306.24 185.833 304.844 185.75 303.531C185.667 302.198 185.552 300.917 185.406 299.688C185.281 298.458 185.125 297.219 184.938 295.969L184.781 295.469C186.052 295.323 187.312 295.031 188.562 294.594C189.833 294.135 191.125 293.542 192.438 292.812L192.656 292.688C192.448 293.292 192.229 293.958 192 294.688C191.771 295.396 191.542 296.146 191.312 296.938L198.156 292.688C198.99 292.917 200.021 293.323 201.25 293.906C202.5 294.469 203.76 295.219 205.031 296.156C206.302 297.073 207.49 298.167 208.594 299.438C209.719 300.688 210.562 302.104 211.125 303.688L205.469 306C204.615 304.438 203.635 303.125 202.531 302.062C201.427 300.979 200.292 300.104 199.125 299.438C197.958 298.75 196.812 298.26 195.688 297.969C194.562 297.656 193.552 297.5 192.656 297.5C192.219 297.5 191.781 297.531 191.344 297.594H191.312C191.229 298.365 191.167 299.594 191.125 301.281C191.104 302.948 191.094 305.094 191.094 307.719V308.812C191.094 314.667 191.531 319.729 192.406 324L192.656 325.125C191.844 325.229 191.042 325.385 190.25 325.594C189.458 325.802 188.708 326.052 188 326.344C187.312 326.615 186.688 326.896 186.125 327.188C185.562 327.479 185.115 327.75 184.781 328ZM227.031 328.125C225.802 327.833 224.323 327.229 222.594 326.312C220.865 325.375 219.302 324.24 217.906 322.906C216.073 321.135 214.792 319.208 214.062 317.125C213.354 315.396 212.906 313.208 212.719 310.562V310.438C212.719 308.208 213.229 305.906 214.25 303.531C215.021 301.719 216.052 300.104 217.344 298.688C217.885 298.104 218.51 297.542 219.219 297L225.781 292.688C226.885 293.062 228.771 293.938 231.438 295.312C233.375 296.312 235.25 297.812 237.062 299.812C238.396 301.896 239.062 303.823 239.062 305.594C239.062 305.635 239.062 305.688 239.062 305.75C238.75 308.292 237.583 310.333 235.562 311.875C232.125 314.5 227.844 315.833 222.719 315.875C229.177 313.667 233 311.115 234.188 308.219C234.438 307.615 234.562 307.021 234.562 306.438C234.562 306.417 234.562 306.396 234.562 306.375C234.562 306.354 234.562 306.333 234.562 306.312C234.562 305.438 234.198 304.583 233.469 303.75C232.323 302.396 230.677 301.188 228.531 300.125C224.865 298.312 221.885 297.292 219.594 297.062C218.802 298.354 218.083 300.312 217.438 302.938C216.938 304.979 216.688 306.75 216.688 308.25C216.688 308.958 216.74 309.635 216.844 310.281C217.135 312.135 217.906 314 219.156 315.875C220.448 317.792 222.25 319.302 224.562 320.406C226.562 321.365 229.635 322.312 233.781 323.25L233.812 323.219C234.146 322.698 234.312 321.792 234.312 320.5C234.312 319.688 234.177 318.625 233.906 317.312L238.344 319.062C237.781 320.333 236.865 321.479 235.594 322.5C234.635 323.271 234.156 323.667 234.156 323.688L227.031 328.125ZM258.312 328.188C256.667 327.5 255.146 326.875 253.75 326.312C252.896 325.979 252.042 325.573 251.188 325.094C250.354 324.594 249.562 324.062 248.812 323.5C248.062 322.938 247.385 322.354 246.781 321.75C246.177 321.146 245.698 320.542 245.344 319.938L250.938 316.438C250.979 316.875 251.25 317.375 251.75 317.938C252.25 318.479 253.052 319.052 254.156 319.656C255.26 320.26 256.688 320.875 258.438 321.5C260.208 322.104 262.385 322.677 264.969 323.219C266.031 321.406 266.562 319.698 266.562 318.094C266.562 315.927 265.312 314.5 262.812 313.812L262.031 313.594C261.552 313.51 260.99 313.427 260.344 313.344C259.719 313.26 259.021 313.167 258.25 313.062C256.25 312.812 254.469 312.469 252.906 312.031C251.344 311.594 250.021 311.042 248.938 310.375C247.854 309.688 247.01 308.885 246.406 307.969C245.802 307.031 245.469 305.948 245.406 304.719C245.448 304.073 245.542 303.479 245.688 302.938C245.854 302.396 246.115 301.802 246.469 301.156C246.844 300.51 247.344 299.844 247.969 299.156C248.594 298.469 249.396 297.75 250.375 297L257 292.656C258.542 293.281 259.875 293.844 261 294.344C262.125 294.844 263.115 295.354 263.969 295.875C264.823 296.375 265.583 296.917 266.25 297.5C266.917 298.062 267.573 298.719 268.219 299.469L262.75 302.781C262.021 301.906 260.979 300.979 259.625 300C258.208 299 255.188 298.083 250.562 297.25L250.531 297.281C250.052 297.802 249.656 298.458 249.344 299.25C249.031 300.021 248.875 300.875 248.875 301.812C248.875 302.708 249.177 303.448 249.781 304.031C250.385 304.615 251.167 305.094 252.125 305.469C253.083 305.844 254.146 306.135 255.312 306.344C256.5 306.552 257.656 306.729 258.781 306.875C265.073 307.542 268.802 309.312 269.969 312.188C270.385 313.167 270.594 314.198 270.594 315.281C270.594 315.76 270.542 316.25 270.438 316.75C270.333 317.229 270.135 317.76 269.844 318.344C269.552 318.927 269.135 319.562 268.594 320.25C268.073 320.938 267.385 321.708 266.531 322.562C266.323 322.771 265.854 323.125 265.125 323.625L258.312 328.188ZM277.562 301.75C278.104 300.5 279.021 299.354 280.312 298.312L281.781 297.125L288.906 292.688C290.094 293 291.562 293.604 293.312 294.5C294.979 295.354 296.542 296.49 298 297.906C299.833 299.698 301.125 301.625 301.875 303.688C302.688 305.688 303.125 307.875 303.188 310.25C303.333 316.167 303.719 320.75 304.344 324L304.594 325.125C303.177 325.292 301.906 325.583 300.781 326C298.969 326.667 297.615 327.333 296.719 328C297.51 322.375 297.906 316.781 297.906 311.219C297.906 310.948 297.906 310.667 297.906 310.375C297.906 308 297.531 306.188 296.781 304.938C295.469 303 293.656 301.49 291.344 300.406C289.26 299.427 286.177 298.49 282.094 297.594C281.76 298.115 281.594 299.021 281.594 300.312C281.594 301.125 281.729 302.188 282 303.5L277.562 301.75ZM290.125 328C288.938 327.583 287.052 326.708 284.469 325.375C282.531 324.375 280.656 322.875 278.844 320.875C277.51 318.792 276.844 316.865 276.844 315.094C276.844 315.052 276.844 315 276.844 314.938C277.156 312.417 278.323 310.375 280.344 308.812C283.76 306.188 288.042 304.854 293.188 304.812C286.833 307.146 283.156 309.75 282.156 312.625C281.948 313.229 281.844 313.812 281.844 314.375C281.844 315.333 282.177 316.188 282.844 316.938C284.635 318.75 286.146 319.958 287.375 320.562C291.146 322.417 294.25 323.458 296.688 323.688L290.125 328Z" fill="white"/>
<defs>
<linearGradient id="paint0_linear_15_274" x1="276.733" y1="296.256" x2="-8.54771" y2="1.51676" gradientUnits="userSpaceOnUse">
<stop stop-color="#885CD0"/>
<stop offset="1" stop-color="#AA80EF"/>
</linearGradient>
</defs>
</svg>
