<svg width="361" height="392" viewBox="0 0 361 392" fill="none" xmlns="http://www.w3.org/2000/svg">
<rect width="361" height="392" rx="53" fill="url(#paint0_linear_15_274)"/>
<path d="M101.451 104L86.603 59.2H95.243L108.491 99.712H104.203L117.963 59.2H125.643L139.019 99.712H134.859L148.427 59.2H156.363L141.515 104H132.683L120.459 67.456H122.763L110.347 104H101.451ZM175.875 104.448C172.077 104.448 168.749 103.701 165.891 102.208C163.075 100.672 160.877 98.5813 159.299 95.936C157.763 93.2907 156.995 90.2827 156.995 86.912C156.995 83.4987 157.741 80.4907 159.235 77.888C160.771 75.2427 162.861 73.1733 165.507 71.68C168.195 70.1867 171.245 69.44 174.659 69.44C177.987 69.44 180.952 70.1653 183.555 71.616C186.157 73.0667 188.205 75.1147 189.699 77.76C191.192 80.4053 191.939 83.52 191.939 87.104C191.939 87.4453 191.917 87.8293 191.875 88.256C191.875 88.6827 191.853 89.088 191.811 89.472H163.331V84.16H187.587L184.451 85.824C184.493 83.8613 184.088 82.1333 183.235 80.64C182.381 79.1467 181.208 77.9733 179.715 77.12C178.264 76.2667 176.579 75.84 174.659 75.84C172.696 75.84 170.968 76.2667 169.475 77.12C168.024 77.9733 166.872 79.168 166.019 80.704C165.208 82.1973 164.803 83.968 164.803 86.016V87.296C164.803 89.344 165.272 91.1573 166.211 92.736C167.149 94.3147 168.472 95.5307 170.179 96.384C171.885 97.2373 173.848 97.664 176.067 97.664C177.987 97.664 179.715 97.3653 181.251 96.768C182.787 96.1707 184.152 95.232 185.347 93.952L189.635 98.88C188.099 100.672 186.157 102.059 183.811 103.04C181.507 103.979 178.861 104.448 175.875 104.448ZM197.574 75.904L201.286 61.696L202.374 66.496C200.88 66.496 199.622 66.0267 198.598 65.088C197.616 64.1493 197.126 62.8907 197.126 61.312C197.126 59.7333 197.616 58.4747 198.598 57.536C199.622 56.5547 200.859 56.064 202.31 56.064C203.803 56.064 205.04 56.5547 206.022 57.536C207.003 58.5173 207.494 59.776 207.494 61.312C207.494 61.7813 207.451 62.272 207.366 62.784C207.323 63.2533 207.195 63.808 206.982 64.448C206.811 65.0453 206.512 65.8347 206.086 66.816L202.758 75.904H197.574ZM215.311 104V69.824H222.927V79.232L222.031 76.48C223.055 74.176 224.655 72.4267 226.831 71.232C229.049 70.0373 231.801 69.44 235.087 69.44V77.056C234.745 76.9707 234.425 76.928 234.127 76.928C233.828 76.8853 233.529 76.864 233.231 76.864C230.201 76.864 227.791 77.76 225.999 79.552C224.207 81.3013 223.311 83.9253 223.311 87.424V104H215.311ZM257.625 104.448C253.827 104.448 250.499 103.701 247.641 102.208C244.825 100.672 242.627 98.5813 241.049 95.936C239.513 93.2907 238.745 90.2827 238.745 86.912C238.745 83.4987 239.491 80.4907 240.985 77.888C242.521 75.2427 244.611 73.1733 247.257 71.68C249.945 70.1867 252.995 69.44 256.409 69.44C259.737 69.44 262.702 70.1653 265.305 71.616C267.907 73.0667 269.955 75.1147 271.449 77.76C272.942 80.4053 273.689 83.52 273.689 87.104C273.689 87.4453 273.667 87.8293 273.625 88.256C273.625 88.6827 273.603 89.088 273.561 89.472H245.081V84.16H269.337L266.201 85.824C266.243 83.8613 265.838 82.1333 264.985 80.64C264.131 79.1467 262.958 77.9733 261.465 77.12C260.014 76.2667 258.329 75.84 256.409 75.84C254.446 75.84 252.718 76.2667 251.225 77.12C249.774 77.9733 248.622 79.168 247.769 80.704C246.958 82.1973 246.553 83.968 246.553 86.016V87.296C246.553 89.344 247.022 91.1573 247.961 92.736C248.899 94.3147 250.222 95.5307 251.929 96.384C253.635 97.2373 255.598 97.664 257.817 97.664C259.737 97.664 261.465 97.3653 263.001 96.768C264.537 96.1707 265.902 95.232 267.097 93.952L271.385 98.88C269.849 100.672 267.907 102.059 265.561 103.04C263.257 103.979 260.611 104.448 257.625 104.448Z" fill="white"/>
<path d="M107.75 182V135.875H117.969L131 158.344L144.031 135.875H154.438V182H145.75V147.906L134.219 168.594H128L116.438 148.688V182H107.75ZM178.812 182.719C173.521 182.719 169.771 181.74 167.562 179.781C165.354 177.823 164.25 175.177 164.25 171.844V158.625C164.25 155.208 165.521 152.542 168.062 150.625C170.625 148.688 174.208 147.719 178.812 147.719C183.396 147.719 186.969 148.688 189.531 150.625C192.094 152.542 193.375 155.208 193.375 158.625V171.844C193.375 174.052 192.917 175.979 192 177.625C191.083 179.25 189.562 180.51 187.438 181.406C185.333 182.281 182.458 182.719 178.812 182.719ZM178.812 176.812C180.625 176.812 182.083 176.479 183.188 175.812C184.312 175.125 184.875 173.927 184.875 172.219V158.25C184.875 156.542 184.344 155.354 183.281 154.688C182.219 154 180.729 153.656 178.812 153.656C176.979 153.656 175.51 154 174.406 154.688C173.302 155.354 172.75 156.542 172.75 158.25V172.219C172.75 173.927 173.271 175.125 174.312 175.812C175.354 176.479 176.854 176.812 178.812 176.812ZM202.25 148.438H210.75V152.438C211.25 151.562 212.125 150.792 213.375 150.125C214.646 149.438 216.094 148.906 217.719 148.531C219.344 148.135 220.969 147.938 222.594 147.938L222.406 155.156C221.323 155.219 220.146 155.354 218.875 155.562C217.604 155.771 216.375 156.052 215.188 156.406C214.021 156.76 213.031 157.198 212.219 157.719C211.406 158.24 210.917 158.833 210.75 159.5V182H202.25V148.438ZM227.125 171.5V158.406C227.125 154.99 228.417 152.354 231 150.5C233.604 148.646 237.083 147.719 241.438 147.719C246.604 147.719 250.271 148.708 252.438 150.688C254.625 152.667 255.719 155.344 255.719 158.719V166.844H235.625V172.312C235.625 174.292 236.135 175.542 237.156 176.062C238.177 176.562 239.698 176.812 241.719 176.812C244.135 176.812 245.75 176.479 246.562 175.812C247.396 175.125 247.812 173.75 247.812 171.688H255.688C255.688 175.833 254.521 178.708 252.188 180.312C249.854 181.917 246.312 182.719 241.562 182.719C238.833 182.719 236.375 182.385 234.188 181.719C232 181.031 230.271 179.875 229 178.25C227.75 176.625 227.125 174.375 227.125 171.5ZM247.688 161.656V157.719C247.688 156.469 247.417 155.562 246.875 155C246.354 154.417 245.635 154.052 244.719 153.906C243.823 153.74 242.802 153.656 241.656 153.656C239.948 153.656 238.51 153.917 237.344 154.438C236.198 154.938 235.625 156.083 235.625 157.875V161.656H247.688Z" fill="white"/>
<path d="M111.062 234.656V256.625C110.104 257.458 108.823 258.156 107.219 258.719C105.615 259.281 103.667 259.562 101.375 259.562C99.0833 259.562 97.1354 259.052 95.5312 258.031C93.7188 256.927 92.8125 255.365 92.8125 253.344V233.219H85.5312C84.0312 231.073 83.2812 228.729 83.2812 226.188C83.2812 224.458 83.5521 222.958 84.0938 221.688C84.6562 220.396 85.3438 219.396 86.1562 218.688H118.469C119.073 219.625 119.573 220.76 119.969 222.094C120.365 223.427 120.562 224.75 120.562 226.062C120.562 228.521 120.021 230.333 118.938 231.5C117.854 232.646 116.396 233.219 114.562 233.219H105.406C105.344 233.365 105.312 233.521 105.312 233.688C105.312 234.062 105.531 234.312 105.969 234.438C106.427 234.583 107.406 234.656 108.906 234.656H111.062ZM154.594 243.531C154.594 245.031 154.76 246.24 155.094 247.156C155.427 248.073 156.01 248.792 156.844 249.312C156.865 249.417 156.875 249.615 156.875 249.906V250.469C156.875 253.344 156.042 255.583 154.375 257.188C152.729 258.771 150.594 259.562 147.969 259.562C145.365 259.562 143.25 258.823 141.625 257.344C139.729 255.656 138.781 253.094 138.781 249.656C138.781 248.198 138.844 246.917 138.969 245.812C139.115 244.688 139.208 243.885 139.25 243.406C139.312 242.927 139.375 242.479 139.438 242.062C139.5 241.646 139.531 241.031 139.531 240.219C139.531 239.406 139.417 238.823 139.188 238.469C138.979 238.115 138.677 237.938 138.281 237.938C137.906 237.938 137.573 238.021 137.281 238.188L137.688 243.281C137.312 245.385 137.125 247.615 137.125 249.969C137.125 252.323 137.656 254.469 138.719 256.406C136.677 258.51 133.812 259.562 130.125 259.562C128.021 259.562 126.198 259.01 124.656 257.906C122.865 256.656 121.969 255 121.969 252.938V216.469C122.969 215.885 124.167 215.406 125.562 215.031C126.979 214.656 128.406 214.469 129.844 214.469C132.24 214.469 134.219 214.938 135.781 215.875C137.552 216.979 138.438 218.562 138.438 220.625V223.594C136.625 223.698 134.885 224.219 133.219 225.156C131.781 225.99 131.062 226.75 131.062 227.438C131.062 227.667 131.146 227.875 131.312 228.062C131.479 228.229 131.677 228.333 131.906 228.375C132.781 227.354 134.01 226.5 135.594 225.812C137.198 225.125 139.094 224.781 141.281 224.781C143.469 224.781 145.438 225.115 147.188 225.781C149.396 226.615 151.135 227.885 152.406 229.594C153.927 231.677 154.688 234.292 154.688 237.438L154.594 243.531ZM189.531 243.531C189.531 245.031 189.698 246.24 190.031 247.156C190.365 248.073 190.948 248.792 191.781 249.312C191.802 249.417 191.812 249.615 191.812 249.906V250.469C191.812 253.427 190.917 255.729 189.125 257.375C187.542 258.833 185.583 259.562 183.25 259.562C181.667 259.562 180.219 259.188 178.906 258.438C177.594 257.688 176.656 256.604 176.094 255.188C175.385 255.188 175.031 255.531 175.031 256.219C175.031 256.802 175.396 257.458 176.125 258.188C174.771 259.104 172.729 259.562 170 259.562C166.146 259.562 163.062 258.521 160.75 256.438C158.458 254.333 157.312 251.406 157.312 247.656C157.312 243.885 158.531 240.969 160.969 238.906C163.198 237.052 166.083 236.125 169.625 236.125C170.833 236.125 172 236.208 173.125 236.375C173.875 236.521 174.281 236.604 174.344 236.625C174.406 236.417 174.438 236.24 174.438 236.094C174.438 235.552 173.979 235.188 173.062 235C172.146 234.812 170.948 234.719 169.469 234.719C166.323 234.719 163.635 235.354 161.406 236.625C160.385 234.896 159.875 232.708 159.875 230.062C159.875 228.562 160.062 227.448 160.438 226.719C161.938 226.031 163.844 225.427 166.156 224.906C168.469 224.365 170.906 224.094 173.469 224.094C178.76 224.094 182.76 225.25 185.469 227.562C188.177 229.875 189.531 233.156 189.531 237.406V243.531ZM173.312 245.062C172.438 245.062 172 245.458 172 246.25C172 247 172.51 247.375 173.531 247.375C174.24 247.375 174.76 247.208 175.094 246.875C175.427 246.521 175.594 245.917 175.594 245.062C175.594 245.062 174.833 245.062 173.312 245.062ZM226.188 243.531C226.188 245.031 226.354 246.24 226.688 247.156C227.021 248.073 227.604 248.792 228.438 249.312C228.458 249.417 228.469 249.615 228.469 249.906V250.469C228.469 253.344 227.635 255.583 225.969 257.188C224.323 258.771 222.188 259.562 219.562 259.562C216.958 259.562 214.844 258.823 213.219 257.344C211.323 255.656 210.375 253.094 210.375 249.656C210.375 248.198 210.438 246.917 210.562 245.812C210.708 244.688 210.802 243.885 210.844 243.406C210.906 242.927 210.969 242.479 211.031 242.062C211.094 241.646 211.125 241.031 211.125 240.219C211.125 239.406 211.01 238.823 210.781 238.469C210.573 238.115 210.271 237.938 209.875 237.938C209.5 237.938 209.167 238.021 208.875 238.188L209.281 243.281C208.906 245.385 208.719 247.615 208.719 249.969C208.719 252.323 209.25 254.469 210.312 256.406C208.271 258.51 205.406 259.562 201.719 259.562C199.615 259.562 197.792 259.01 196.25 257.906C194.458 256.656 193.562 255 193.562 252.938V237.812C192.333 236.083 191.719 233.958 191.719 231.438C191.719 228.896 192.333 226.698 193.562 224.844H199.125C200.604 224.844 201.865 225.396 202.906 226.5C201.99 227.354 201.531 228.062 201.531 228.625C201.531 229.271 201.896 229.594 202.625 229.594C203.542 228.01 204.938 226.698 206.812 225.656C208.708 224.615 210.854 224.094 213.25 224.094C216.854 224.094 219.781 224.979 222.031 226.75C224.865 228.979 226.281 232.438 226.281 237.125L226.188 243.531ZM275.844 243.531C275.844 245.031 276.01 246.24 276.344 247.156C276.677 248.073 277.26 248.792 278.094 249.312C278.115 249.417 278.125 249.615 278.125 249.906V250.469C278.125 253.427 277.229 255.729 275.438 257.375C273.854 258.833 271.896 259.562 269.562 259.562C267.979 259.562 266.531 259.188 265.219 258.438C263.906 257.688 262.969 256.604 262.406 255.188C261.698 255.188 261.344 255.531 261.344 256.219C261.344 256.802 261.708 257.458 262.438 258.188C261.083 259.104 259.042 259.562 256.312 259.562C252.458 259.562 249.375 258.521 247.062 256.438C244.771 254.333 243.625 251.406 243.625 247.656C243.625 243.885 244.844 240.969 247.281 238.906C249.51 237.052 252.396 236.125 255.938 236.125C257.146 236.125 258.312 236.208 259.438 236.375C260.188 236.521 260.594 236.604 260.656 236.625C260.719 236.417 260.75 236.24 260.75 236.094C260.75 235.552 260.292 235.188 259.375 235C258.458 234.812 257.26 234.719 255.781 234.719C252.635 234.719 249.948 235.354 247.719 236.625C246.698 234.896 246.188 232.708 246.188 230.062C246.188 228.562 246.375 227.448 246.75 226.719C248.25 226.031 250.156 225.427 252.469 224.906C254.781 224.365 257.219 224.094 259.781 224.094C265.073 224.094 269.073 225.25 271.781 227.562C274.49 229.875 275.844 233.156 275.844 237.406V243.531ZM259.625 245.062C258.75 245.062 258.312 245.458 258.312 246.25C258.312 247 258.823 247.375 259.844 247.375C260.552 247.375 261.073 247.208 261.406 246.875C261.74 246.521 261.906 245.917 261.906 245.062C261.906 245.062 261.146 245.062 259.625 245.062Z" fill="white"/>
<path d="M79.5625 312.906C79.4583 313.26 79.3646 313.51 79.2812 313.656C78.0312 316.406 76.6875 318.5 75.25 319.938C74.1667 321.042 73.3021 321.896 72.6562 322.5C72.0104 323.104 71.5729 323.479 71.3438 323.625L64.375 328C63.1875 327.688 61.7917 327.135 60.1875 326.344C58.6042 325.531 57.0104 324.5 55.4062 323.25C53.8229 322 52.3542 320.542 51 318.875C49.6458 317.208 48.6146 315.354 47.9062 313.312C47.3646 311.729 46.9375 310.219 46.625 308.781C46.3333 307.323 46.1979 305.865 46.2188 304.406C46.2188 302.615 46.4583 300.781 46.9375 298.906C47.4375 297.031 48.1146 295.229 48.9688 293.5C49.8438 291.771 50.875 290.188 52.0625 288.75C53.25 287.292 54.5417 286.083 55.9375 285.125L62.875 280.656C63.4583 280.823 64.1667 281.073 65 281.406C65.8333 281.74 66.7604 282.188 67.7812 282.75C68.8021 283.312 69.875 284 71 284.812C72.1458 285.625 73.3021 286.594 74.4688 287.719C75.1146 288.385 75.7083 289.073 76.25 289.781L70.0312 292.844C69.0938 291.656 68.1354 290.646 67.1562 289.812C66.1771 288.958 65.1354 288.24 64.0312 287.656C62.9271 287.052 61.7396 286.562 60.4688 286.188C59.2188 285.792 57.8333 285.458 56.3125 285.188L56.2812 285.219C54.4896 286.26 53.125 289.021 52.1875 293.5C51.5625 296.5 51.25 299.198 51.25 301.594C51.25 302.906 51.3854 304.302 51.6562 305.781C51.9271 307.26 52.3646 308.74 52.9688 310.219C53.5938 311.677 54.4062 313.115 55.4062 314.531C56.4062 315.927 57.6354 317.219 59.0938 318.406C60.5521 319.594 62.2604 320.635 64.2188 321.531C66.1771 322.427 68.4271 323.104 70.9688 323.562C72.9062 321.854 73.875 319.167 73.875 315.5C73.875 313.812 73.6667 312.229 73.25 310.75L79.5625 312.906ZM93.1562 297.25L93.125 297.281C92.5208 298.406 91.875 300.292 91.1875 302.938C90.6875 304.833 90.4375 306.604 90.4375 308.25C90.4375 308.896 90.4896 309.573 90.5938 310.281C90.8646 312.115 91.6354 313.979 92.9062 315.875C94.2188 317.854 96.0208 319.365 98.3125 320.406C100.458 321.385 103.531 322.333 107.531 323.25L107.562 323.219C108.062 322.094 108.656 320.031 109.344 317.031C109.76 315.219 109.969 313.573 109.969 312.094C109.969 311.302 109.917 310.604 109.812 310C109.5 308.167 108.729 306.302 107.5 304.406C106.5 302.865 104.698 301.365 102.094 299.906C100.052 298.76 97.0729 297.875 93.1562 297.25ZM100.781 328.125C99.5312 327.812 98.0521 327.208 96.3438 326.312C94.6562 325.417 93.0938 324.281 91.6562 322.906C89.8229 321.135 88.5417 319.208 87.8125 317.125C86.9167 315 86.4688 312.812 86.4688 310.562C86.4688 310.5 86.4688 310.458 86.4688 310.438C86.4688 308.208 86.9792 305.906 88 303.531C88.8125 301.635 89.8438 300.021 91.0938 298.688C91.6771 298.062 92.3021 297.5 92.9688 297L99.5938 292.656C100.615 292.927 102.104 293.562 104.062 294.562C105.521 295.312 107.073 296.438 108.719 297.938C110.573 299.729 111.875 301.719 112.625 303.906C113.458 306.24 113.885 308.406 113.906 310.406V310.531C113.906 313.406 113.448 315.688 112.531 317.375C111.115 319.979 109.927 321.708 108.969 322.562C108.448 323.021 108.094 323.396 107.906 323.688L100.781 328.125ZM121.719 328C122.51 321.75 122.906 316.562 122.906 312.438C122.906 310.375 122.896 309.25 122.875 309.062C122.833 304.208 122.5 299.844 121.875 295.969L121.719 295.469C124.24 295.177 126.792 294.292 129.375 292.812L129.594 292.688C129.177 293.917 128.729 295.333 128.25 296.938L135.094 292.688C136.281 293 137.75 293.604 139.5 294.5C141.146 295.354 142.708 296.49 144.188 297.906L156.281 292.688C157.469 293 158.938 293.604 160.688 294.5C162.312 295.354 163.875 296.49 165.375 297.906C167.208 299.656 168.5 301.583 169.25 303.688C170.062 305.688 170.5 307.875 170.562 310.25C170.75 316.312 171.135 320.896 171.719 324L171.969 325.125C170.573 325.292 169.302 325.583 168.156 326C166.344 326.667 164.99 327.333 164.094 328C164.906 322.542 165.312 317.26 165.312 312.156C165.292 311.49 165.281 310.896 165.281 310.375C165.281 307.979 164.906 306.167 164.156 304.938C162.885 303.042 161.073 301.531 158.719 300.406C154.969 298.615 151.635 297.719 148.719 297.719C147.26 297.719 145.906 297.938 144.656 298.375C146.24 300.021 147.375 301.792 148.062 303.688C148.875 305.688 149.312 307.875 149.375 310.25C149.562 316.312 149.948 320.896 150.531 324L150.781 325.125C149.385 325.292 148.115 325.583 146.969 326C145.156 326.667 143.802 327.333 142.906 328C143.719 322.542 144.125 317.26 144.125 312.156C144.104 311.49 144.094 310.896 144.094 310.375C144.094 307.979 143.719 306.167 142.969 304.938C141.719 303.104 139.906 301.594 137.531 300.406C135.448 299.365 132.365 298.427 128.281 297.594H128.25C128.104 299.115 128.031 302.49 128.031 307.719V308.812C128.031 314.667 128.469 319.729 129.344 324L129.594 325.125C128.177 325.292 126.906 325.583 125.781 326C123.969 326.667 122.615 327.333 121.719 328ZM186.375 314.031C187.417 316.865 189.271 319.125 191.938 320.812C193.667 321.938 196.688 322.854 201 323.562L201.031 323.531C201.24 323.135 201.5 322.521 201.812 321.688C202.125 320.854 202.417 319.927 202.688 318.906C202.979 317.865 203.219 316.792 203.406 315.688C203.615 314.562 203.719 313.521 203.719 312.562C203.719 311.5 203.562 310.396 203.25 309.25C202.938 308.083 202.458 306.958 201.812 305.875C201.188 304.771 200.375 303.75 199.375 302.812C198.396 301.854 197.219 301.052 195.844 300.406C194.823 299.927 193.573 299.458 192.094 299C190.635 298.542 188.938 298.094 187 297.656C186.562 301.927 186.312 306.75 186.25 312.125L186.375 314.031ZM179.781 339.906C180.24 336.76 180.573 333.448 180.781 329.969C181.01 326.49 181.125 322.802 181.125 318.906C181.104 313.406 180.99 308.792 180.781 305.062C180.594 301.333 180.323 298.49 179.969 296.531L179.781 295.469C181.031 295.323 182.292 295.031 183.562 294.594C184.833 294.135 186.198 293.5 187.656 292.688C187.552 293.312 187.458 293.948 187.375 294.594C187.292 295.24 187.208 295.896 187.125 296.562L193.375 292.688C194 292.854 194.719 293.115 195.531 293.469C196.365 293.802 197.198 294.208 198.031 294.688C198.885 295.146 199.698 295.656 200.469 296.219C201.26 296.76 201.927 297.323 202.469 297.906C203.281 298.781 204.01 299.688 204.656 300.625C205.302 301.542 205.854 302.51 206.312 303.531C206.771 304.552 207.115 305.625 207.344 306.75C207.573 307.875 207.688 309.083 207.688 310.375C207.542 311.75 207.375 312.938 207.188 313.938C207.021 314.917 206.771 315.833 206.438 316.688C206.125 317.542 205.698 318.396 205.156 319.25C204.635 320.083 203.938 321.042 203.062 322.125C202.854 322.375 202.594 322.635 202.281 322.906C201.969 323.177 201.604 323.479 201.188 323.812L194.562 328C193.583 327.833 192.375 327.417 190.938 326.75C189.521 326.062 188.042 325.083 186.5 323.812C186.583 325.812 186.708 327.823 186.875 329.844C187.042 331.865 187.24 333.938 187.469 336.062L187.656 337.031V337.125C186.385 337.271 185.115 337.562 183.844 338C182.594 338.458 181.24 339.094 179.781 339.906ZM214.625 301.75C215.167 300.5 216.083 299.354 217.375 298.312L218.844 297.125L225.969 292.688C227.156 293 228.625 293.604 230.375 294.5C232.042 295.354 233.604 296.49 235.062 297.906C236.896 299.698 238.188 301.625 238.938 303.688C239.75 305.688 240.188 307.875 240.25 310.25C240.396 316.167 240.781 320.75 241.406 324L241.656 325.125C240.24 325.292 238.969 325.583 237.844 326C236.031 326.667 234.677 327.333 233.781 328C234.573 322.375 234.969 316.781 234.969 311.219C234.969 310.948 234.969 310.667 234.969 310.375C234.969 308 234.594 306.188 233.844 304.938C232.531 303 230.719 301.49 228.406 300.406C226.323 299.427 223.24 298.49 219.156 297.594C218.823 298.115 218.656 299.021 218.656 300.312C218.656 301.125 218.792 302.188 219.062 303.5L214.625 301.75ZM227.188 328C226 327.583 224.115 326.708 221.531 325.375C219.594 324.375 217.719 322.875 215.906 320.875C214.573 318.792 213.906 316.865 213.906 315.094C213.906 315.052 213.906 315 213.906 314.938C214.219 312.417 215.385 310.375 217.406 308.812C220.823 306.188 225.104 304.854 230.25 304.812C223.896 307.146 220.219 309.75 219.219 312.625C219.01 313.229 218.906 313.812 218.906 314.375C218.906 315.333 219.24 316.188 219.906 316.938C221.698 318.75 223.208 319.958 224.438 320.562C228.208 322.417 231.312 323.458 233.75 323.688L227.188 328ZM249.469 328C250.26 321.75 250.656 316.562 250.656 312.438C250.656 310.375 250.646 309.25 250.625 309.062C250.583 304.208 250.25 299.844 249.625 295.969L249.469 295.469C251.99 295.177 254.542 294.292 257.125 292.812L257.344 292.688C256.927 293.917 256.479 295.333 256 296.938L262.844 292.688C264.031 293 265.5 293.604 267.25 294.5C268.875 295.354 270.438 296.49 271.938 297.906C273.771 299.656 275.062 301.583 275.812 303.688C276.625 305.688 277.062 307.875 277.125 310.25C277.312 316.312 277.698 320.896 278.281 324L278.531 325.125C277.135 325.292 275.865 325.583 274.719 326C272.906 326.667 271.552 327.333 270.656 328C271.469 322.542 271.875 317.26 271.875 312.156C271.854 311.49 271.844 310.896 271.844 310.375C271.844 307.979 271.469 306.167 270.719 304.938C269.469 303.104 267.656 301.594 265.281 300.406C263.198 299.365 260.115 298.427 256.031 297.594H256C255.854 299.115 255.781 302.49 255.781 307.719V308.812C255.781 314.667 256.219 319.729 257.094 324L257.344 325.125C255.927 325.292 254.656 325.583 253.531 326C251.719 326.667 250.365 327.333 249.469 328ZM284.781 295.562C285.656 295.479 286.49 295.333 287.281 295.125C288.094 294.896 288.833 294.646 289.5 294.375C290.188 294.083 290.792 293.792 291.312 293.5C291.854 293.208 292.302 292.938 292.656 292.688C291.844 298.167 291.438 303.448 291.438 308.531C291.479 309.427 291.51 310.229 291.531 310.938C291.573 311.646 291.625 312.292 291.688 312.875C291.75 313.438 291.854 313.958 292 314.438C292.146 314.896 292.344 315.333 292.594 315.75C293.198 316.646 293.885 317.448 294.656 318.156C295.448 318.865 296.417 319.51 297.562 320.094C298.708 320.656 300.062 321.188 301.625 321.688C303.208 322.167 305.094 322.635 307.281 323.094H307.312C307.333 322.323 307.344 321.552 307.344 320.781C307.365 319.99 307.375 319.198 307.375 318.406V317.312C307.354 312.292 307.26 308.073 307.094 304.656C306.927 301.24 306.635 298.583 306.219 296.688L305.969 295.562C306.844 295.479 307.677 295.333 308.469 295.125C309.281 294.896 310.021 294.646 310.688 294.375C311.375 294.083 311.979 293.792 312.5 293.5C313.042 293.208 313.49 292.938 313.844 292.688C313.385 295.833 313.042 299.146 312.812 302.625C312.604 306.104 312.5 309.792 312.5 313.688C312.521 319.188 312.625 323.802 312.812 327.531C313.021 331.26 313.302 334.104 313.656 336.062L313.844 337.125C312.594 337.271 311.333 337.562 310.062 338C308.792 338.458 307.427 339.094 305.969 339.906C306.323 337.573 306.615 335.073 306.844 332.406C307.073 329.74 307.229 326.854 307.312 323.75L300.469 328C299.594 327.771 298.531 327.365 297.281 326.781C296.031 326.177 294.771 325.417 293.5 324.5C292.229 323.562 291.052 322.469 289.969 321.219C288.885 319.969 288.062 318.562 287.5 317C286.688 315 286.25 312.812 286.188 310.438C286.083 307.396 285.938 304.74 285.75 302.469C285.562 300.177 285.323 298.25 285.031 296.688L284.781 295.562Z" fill="white"/>
<defs>
<linearGradient id="paint0_linear_15_274" x1="276.733" y1="296.256" x2="-8.54771" y2="1.51676" gradientUnits="userSpaceOnUse">
<stop stop-color="#885CD0"/>
<stop offset="1" stop-color="#AA80EF"/>
</linearGradient>
</defs>
</svg>
