<svg width="469" height="555" viewBox="0 0 469 555" fill="none" xmlns="http://www.w3.org/2000/svg">
<g clip-path="url(#clip0_43_216)">
<path d="M460.766 543.937C458.114 547.518 454.825 550.58 451.066 552.968C450.266 553.476 449.445 553.955 448.61 554.399H428.959C429.194 553.927 429.423 553.447 429.644 552.968C435.737 540.088 437.648 525.619 435.108 511.595C432.567 497.57 425.704 484.696 415.482 474.782C427.36 478.457 438.338 485.622 445.519 495.784C449.009 500.732 451.49 506.321 452.822 512.23C454.008 500.412 452.122 488.486 447.347 477.613C456.99 485.472 464.5 496.234 467.362 508.348C470.224 520.468 468.147 533.919 460.766 543.937Z" fill="#F0F0F0"/>
<path d="M468.727 555H284.751V553.494H469L468.727 555Z" fill="#3F3D56"/>
<path d="M220.388 188.258C220.388 215.889 210.751 239.479 192.414 257.034C179.401 269.498 159.357 286.968 159.357 305.438V320.719H98.3261V305.438C98.3261 286.775 78.2038 269.269 65.2695 257.034C47.3457 240.094 37.2952 214.902 37.2952 188.258V187.693C37.374 163.373 47.0925 140.08 64.3132 122.938C81.5339 105.795 104.846 96.2071 129.123 96.282C153.401 96.3569 176.654 106.089 193.769 123.337C210.884 140.586 220.459 163.938 220.388 188.258Z" fill="#885CD0"/>
<path d="M159.356 322.865C158.788 322.865 158.244 322.639 157.842 322.237C157.44 321.834 157.215 321.289 157.215 320.72V305.436C157.215 287.469 174.902 270.697 187.818 258.451C188.889 257.434 189.932 256.448 190.933 255.487C208.799 238.376 218.242 215.13 218.242 188.259C218.242 138.04 178.973 98.7008 128.843 98.7008H128.59C104.998 98.7273 82.3768 108.11 65.6714 124.798C48.9659 141.486 39.5359 164.122 39.4431 187.755V188.256C39.4431 214.571 49.3929 239.071 66.7428 255.478C67.6215 256.31 68.5345 257.166 69.4717 258.044C82.5537 270.315 100.47 287.118 100.47 305.436V320.72C100.47 321.289 100.245 321.834 99.8432 322.237C99.4416 322.639 98.8969 322.865 98.329 322.865C97.761 322.865 97.2164 322.639 96.8148 322.237C96.4132 321.834 96.1876 321.289 96.1876 320.72V305.436C96.1876 288.978 79.0561 272.91 66.5444 261.172C65.6028 260.29 64.6889 259.431 63.8026 258.594C45.6004 241.381 35.1602 215.744 35.1602 188.256V187.742C35.303 136.224 77.193 94.4075 128.584 94.4075H128.849C153.565 94.2787 177.32 103.991 194.887 121.408C212.455 138.825 222.397 162.519 222.525 187.279C222.527 187.606 222.527 187.933 222.525 188.259C222.525 216.33 212.624 240.649 193.893 258.588C192.887 259.551 191.84 260.544 190.762 261.566C178.413 273.277 161.496 289.316 161.496 305.436V320.72C161.496 321.289 161.27 321.834 160.868 322.237C160.467 322.639 159.922 322.865 159.354 322.865H159.356Z" fill="#3F3D56"/>
<path d="M149.186 350.392H108.499C107.552 350.392 106.644 350.015 105.975 349.345C105.306 348.674 104.93 347.765 104.93 346.816C104.93 345.868 105.306 344.959 105.975 344.288C106.644 343.618 107.552 343.241 108.499 343.241H149.186C150.133 343.241 151.04 343.618 151.71 344.288C152.379 344.959 152.755 345.868 152.755 346.816C152.755 347.765 152.379 348.674 151.71 349.345C151.04 350.015 150.133 350.392 149.186 350.392Z" fill="#885CD0"/>
<path d="M133.217 374.347H124.461C121.419 374.349 118.435 373.521 115.828 371.951C115.441 371.725 115.142 371.376 114.978 370.959C114.814 370.542 114.794 370.082 114.923 369.652C115.04 369.212 115.3 368.822 115.662 368.545C116.024 368.268 116.467 368.119 116.922 368.121H140.756C141.211 368.119 141.655 368.268 142.016 368.545C142.378 368.822 142.638 369.212 142.756 369.652C142.884 370.082 142.865 370.542 142.7 370.959C142.536 371.376 142.237 371.725 141.85 371.951C139.243 373.521 136.259 374.349 133.217 374.347Z" fill="#3F3D56"/>
<path d="M149.193 361.686L108.264 361.681L108.137 361.409C108.017 360.908 108.012 360.386 108.123 359.883C108.234 359.38 108.459 358.91 108.78 358.507C109.105 358.094 109.52 357.76 109.992 357.531C110.465 357.302 110.983 357.184 111.509 357.185H146.17C146.695 357.184 147.213 357.302 147.686 357.531C148.159 357.76 148.574 358.094 148.899 358.507C149.217 358.904 149.441 359.369 149.553 359.865C149.666 360.361 149.664 360.877 149.549 361.373L149.485 361.649L149.193 361.686Z" fill="#3F3D56"/>
<path d="M34.1909 103.98C33.3281 103.981 32.4944 103.668 31.8453 103.099L1.19491 76.2967C0.492766 75.67 0.0658388 74.7912 0.00692544 73.851C-0.051988 72.9108 0.261877 71.9854 0.880282 71.2757C1.49869 70.566 2.37166 70.1296 3.30953 70.0611C4.24739 69.9926 5.17433 70.2977 5.88892 70.91L36.5393 97.7118C37.0868 98.1905 37.4753 98.8252 37.6531 99.531C37.8308 100.237 37.7892 100.98 37.5339 101.662C37.2786 102.343 36.8217 102.93 36.2243 103.345C35.6269 103.759 34.9175 103.981 34.1909 103.981V103.98Z" fill="#E4E4E4"/>
<path d="M218.41 103.98C217.683 103.981 216.974 103.759 216.376 103.344C215.779 102.93 215.322 102.343 215.067 101.661C214.812 100.979 214.77 100.236 214.948 99.5303C215.126 98.8244 215.514 98.1898 216.062 97.7111L246.711 70.9071C247.426 70.2948 248.353 69.9897 249.291 70.0582C250.228 70.1267 251.101 70.5632 251.72 71.2728C252.338 71.9825 252.652 72.908 252.593 73.8481C252.534 74.7883 252.107 75.6672 251.405 76.2938L220.755 103.096C220.106 103.666 219.273 103.98 218.41 103.98Z" fill="#E4E4E4"/>
<path d="M159.356 337.703H98.3254C97.3788 337.703 96.471 337.326 95.8017 336.656C95.1324 335.985 94.7563 335.076 94.7563 334.127C94.7563 333.179 95.1324 332.27 95.8017 331.599C96.471 330.929 97.3788 330.552 98.3254 330.552H159.356C160.303 330.552 161.211 330.929 161.88 331.599C162.549 332.27 162.925 333.179 162.925 334.127C162.925 335.076 162.549 335.985 161.88 336.656C161.211 337.326 160.303 337.703 159.356 337.703Z" fill="#885CD0"/>
<path d="M127.343 244.299L114.651 320.719H107.406L120.297 243.126C120.453 242.19 120.973 241.354 121.743 240.803C122.513 240.251 123.471 240.028 124.405 240.184C125.34 240.339 126.174 240.86 126.725 241.632C127.276 242.404 127.498 243.363 127.343 244.299Z" fill="#E6E6E6"/>
<path d="M151.734 320.719H144.488L131.797 244.299C131.642 243.363 131.864 242.404 132.415 241.632C132.965 240.86 133.8 240.339 134.734 240.184C135.668 240.028 136.626 240.251 137.396 240.803C138.167 241.354 138.687 242.19 138.842 243.126L151.734 320.719Z" fill="#E6E6E6"/>
<path d="M105.646 241.746C105.646 240.798 106.022 239.888 106.691 239.218C107.361 238.547 108.268 238.171 109.215 238.171H148.47C149.416 238.171 150.324 238.547 150.993 239.218C151.663 239.888 152.039 240.798 152.039 241.746C152.039 242.694 151.663 243.604 150.993 244.274C150.324 244.945 149.416 245.321 148.47 245.321H109.215C108.268 245.321 107.361 244.945 106.691 244.274C106.022 243.604 105.646 242.694 105.646 241.746Z" fill="#E6E6E6"/>
<path d="M128.842 68.29C127.896 68.29 126.988 67.9133 126.319 67.2427C125.649 66.5722 125.273 65.6628 125.273 64.7146V3.57539C125.273 2.62714 125.649 1.71772 126.319 1.04721C126.988 0.376692 127.896 0 128.842 0C129.789 0 130.697 0.376692 131.366 1.04721C132.035 1.71772 132.411 2.62714 132.411 3.57539V64.7146C132.411 65.6628 132.035 66.5722 131.366 67.2427C130.697 67.9133 129.789 68.29 128.842 68.29Z" fill="#E4E4E4"/>
<path d="M420.591 544.996H411.842L407.679 511.181H420.593L420.591 544.996Z" fill="#FEB8B8"/>
<path d="M422.824 553.494H394.606V553.137C394.606 550.219 395.763 547.421 397.823 545.357C399.882 543.294 402.675 542.135 405.588 542.134H422.824L422.824 553.494Z" fill="#2F2E41"/>
<path d="M354.109 544.707L345.655 542.443L350.352 508.698L362.829 512.04L354.109 544.707Z" fill="#FEB8B8"/>
<path d="M354.074 553.494L326.814 546.192L326.906 545.846C327.659 543.027 329.498 540.623 332.02 539.163C334.542 537.702 337.54 537.305 340.354 538.059L357.004 542.519L354.074 553.494Z" fill="#2F2E41"/>
<path d="M425.626 355.492L432.956 364.023L423.477 537.388H403.227L393.019 403.99L361.362 540.966L340.31 535.794L359.452 361.815L425.626 355.492Z" fill="#2F2E41"/>
<path d="M364.346 243.564L384.508 233.43L415.514 233.976L442.196 247.654L427.015 323.608L433.573 363.209C408.227 369.684 381.691 369.903 356.242 363.847L356.039 363.798C356.039 363.798 371.111 310.227 364.695 293.879L364.346 243.564Z" fill="#E6E6E6"/>
<path d="M422.676 203.085C422.653 197.025 420.232 191.221 415.942 186.948C411.652 182.674 405.846 180.28 399.796 180.292C393.746 180.303 387.948 182.718 383.675 187.007C379.401 191.297 377.001 197.109 377.001 203.17C377.001 209.23 379.401 215.043 383.675 219.332C387.948 223.621 393.746 226.037 399.796 226.048C405.846 226.059 411.652 223.665 415.942 219.392C420.232 215.119 422.653 209.315 422.676 203.254V203.085Z" fill="#FEB8B8"/>
<path d="M361.563 298.941C361.997 300.057 362.67 301.065 363.535 301.893C364.4 302.72 365.435 303.348 366.568 303.732C367.701 304.116 368.905 304.246 370.093 304.113C371.282 303.98 372.427 303.588 373.448 302.964L414.388 324.644L415.713 314.654L375.933 291.154C374.772 289.505 373.049 288.34 371.088 287.879C369.128 287.418 367.067 287.694 365.295 288.654C363.524 289.613 362.166 291.191 361.478 293.087C360.79 294.983 360.82 297.065 361.563 298.941H361.563Z" fill="#FEB8B8"/>
<path d="M416.119 300.667C415.452 301.662 414.575 302.498 413.551 303.116C412.526 303.734 411.379 304.12 410.189 304.246C409 304.372 407.797 304.235 406.666 303.845C405.535 303.455 404.504 302.822 403.643 301.989L358.959 314.17L359.348 301.486L403.798 289.921C405.29 288.566 407.226 287.807 409.24 287.787C411.254 287.767 413.205 288.487 414.724 289.812C416.243 291.137 417.224 292.974 417.481 294.975C417.738 296.976 417.253 299.002 416.119 300.669L416.119 300.667Z" fill="#FEB8B8"/>
<path d="M433.484 248.204L442.196 247.657C442.196 247.657 452.396 261.139 446.738 275.771C446.738 275.771 447.718 328.329 425.127 326.169C402.536 324.01 395.397 324.01 395.397 324.01L402.178 305.061L417.349 300.369C417.349 300.369 412.673 279.707 421.524 271.11L433.484 248.204Z" fill="#E6E6E6"/>
<path d="M370.574 247.742L369.343 241.419C369.343 241.419 351.183 240.99 347.593 268.557C347.593 268.557 331.263 309.811 347.269 315.124C363.275 320.436 380.881 315.124 380.881 315.124L379.556 296.929L361.946 293.33C361.946 293.33 371.044 281.539 366.09 271.311L370.574 247.742Z" fill="#E6E6E6"/>
<path d="M407.745 214.319C406.066 213.659 404.206 213.693 402.431 213.368C396.082 212.196 391.186 205.712 391.789 199.274C391.941 198.439 391.954 197.586 391.83 196.747C391.39 194.91 389.352 193.924 387.48 193.704C385.607 193.484 383.673 193.766 381.851 193.277C379.039 192.523 376.938 189.953 376.226 187.126C375.619 184.25 375.936 181.255 377.13 178.571L378.004 180.396C378.913 179.43 379.533 178.227 379.793 176.926C380.556 176.967 381.296 177.204 381.942 177.613C382.588 178.023 383.118 178.592 383.481 179.266C384.609 179.771 384.472 177.188 385.597 176.677C386.103 176.554 386.637 176.624 387.096 176.872C389.575 177.705 392.204 176.455 394.66 175.559C398.915 174.013 403.474 173.491 407.967 174.036C410.953 174.401 413.967 175.285 416.29 177.196C418.126 178.863 419.619 180.872 420.684 183.113C423.552 188.482 425.712 194.405 425.653 200.496C425.595 205.482 424.063 210.339 421.253 214.454C419.788 216.589 415.057 223.995 411.913 223.18C407.962 222.158 412.474 216.177 407.745 214.319Z" fill="#2F2E41"/>
</g>
<defs>
<clipPath id="clip0_43_216">
<rect width="469" height="555" fill="white"/>
</clipPath>
</defs>
</svg>
