<svg width="516" height="447" viewBox="0 0 516 447" fill="none" xmlns="http://www.w3.org/2000/svg">
<g clip-path="url(#clip0_44_252)">
<path d="M407.469 36.9131C406.889 36.5261 406.302 36.1591 405.722 35.7854C388.959 25.053 370.992 16.3341 352.191 9.8088L347.832 70.0095H320.197V1.02092C318.457 0.660592 316.704 0.320287 314.951 0V70.0095H282.11C264.03 70.0095 246.691 62.8198 233.907 50.0221C221.123 37.2244 213.941 19.867 213.941 1.76833C212.182 2.14867 210.435 2.55563 208.689 2.98936V70.0095H181.94L177.788 12.6046C158.467 20.0222 140.125 29.7766 123.17 41.6507C122.877 41.8509 122.584 42.0577 122.297 42.2579C120.824 43.2922 119.371 44.3464 117.924 45.4141V275.08H196.758L195.365 255.763L187.699 149.701H342.066L334.401 255.763L333.008 275.08H410.968V39.2352C409.808 38.4479 408.642 37.6738 407.469 36.9131ZM208.689 132.185H186.433L182.32 75.2675H208.689V132.185ZM314.951 132.185H277.571V131.058C277.571 130.515 277.464 129.979 277.256 129.478C277.049 128.977 276.745 128.522 276.362 128.139C275.979 127.756 275.524 127.453 275.023 127.246C274.523 127.039 273.986 126.933 273.445 126.934H257.194C256.653 126.934 256.117 127.04 255.617 127.247C255.118 127.454 254.663 127.758 254.281 128.141C253.898 128.524 253.595 128.979 253.388 129.479C253.181 129.98 253.075 130.516 253.075 131.058V132.185H213.941V75.2675H314.951V132.185ZM320.197 132.185V75.2675H347.452L343.339 132.185H320.197Z" fill="#F2F2F2"/>
<path d="M493.083 417.407L493.604 405.679C499.035 402.773 505.094 401.238 511.252 401.207C502.776 408.144 503.835 421.517 498.089 430.846C496.274 433.742 493.832 436.192 490.943 438.015C488.054 439.837 484.792 440.986 481.399 441.375L474.306 445.722C473.333 440.291 473.547 434.712 474.935 429.371C476.323 424.03 478.85 419.054 482.344 414.786C484.328 412.41 486.603 410.295 489.114 408.488C490.813 412.973 493.083 417.407 493.083 417.407Z" fill="#F2F2F2"/>
<path d="M112.514 404.555L95.3962 399.367C93.1513 390.237 93.1667 380.696 95.441 371.573C102.49 386.726 122.631 390.196 134.239 402.211C137.831 405.987 140.528 410.523 142.13 415.483C143.733 420.444 144.199 425.702 143.496 430.868L147.243 442.999C138.857 442.393 130.703 439.975 123.341 435.91C115.979 431.846 109.585 426.232 104.599 419.455C101.839 415.626 99.5727 411.464 97.8522 407.067C105.112 406.243 112.514 404.555 112.514 404.555Z" fill="#F2F2F2"/>
<path d="M479.763 443.805C479.761 444.16 479.619 444.5 479.37 444.752C479.246 444.876 479.1 444.973 478.938 445.04C478.777 445.106 478.604 445.14 478.43 445.139H473.071C472.896 445.14 472.722 445.106 472.56 445.039C472.398 444.972 472.251 444.874 472.127 444.75C472.003 444.626 471.905 444.478 471.838 444.316C471.771 444.154 471.737 443.98 471.738 443.805V281.566C471.738 277.989 470.538 275.087 469.065 275.08H67.4729C65.9932 275.087 64.8 277.989 64.7934 281.566V442.811C64.7923 443.142 64.6682 443.462 64.4454 443.707C64.2225 443.952 63.9166 444.106 63.5869 444.138C62.5071 444.245 61.4273 444.339 60.3541 444.425C60.3275 444.425 60.3008 444.432 60.2741 444.432C59.6876 444.485 59.101 444.525 58.5144 444.572H58.5078C58.2012 444.018 57.9079 443.451 57.6079 442.884C57.5118 442.691 57.4616 442.479 57.4613 442.263V273.152C57.4613 272.164 57.5013 271.17 57.5679 270.189C57.663 268.842 57.8299 267.501 58.0678 266.172C59.1943 259.973 61.7406 255.776 64.6334 255.763H471.898C472.32 255.766 472.737 255.854 473.124 256.023C473.693 256.275 474.206 256.635 474.637 257.084C475.222 257.692 475.722 258.377 476.124 259.119C477.55 261.635 478.57 265.385 478.93 269.749C478.93 269.789 478.936 269.829 478.936 269.869C479.03 270.95 479.076 272.051 479.07 273.152L479.163 287.451L479.223 295.979L479.403 322.736L479.47 332.238L479.763 443.805Z" fill="#E6E6E6"/>
<path d="M515.206 446.795L331.404 447C331.194 446.999 330.993 446.916 330.844 446.767C330.696 446.618 330.613 446.416 330.613 446.206C330.613 445.995 330.696 445.794 330.844 445.645C330.993 445.496 331.194 445.412 331.404 445.411L515.206 445.206C515.416 445.207 515.618 445.291 515.766 445.44C515.914 445.588 515.998 445.79 515.998 446.001C515.998 446.211 515.914 446.413 515.766 446.562C515.618 446.71 515.416 446.794 515.206 446.795Z" fill="#CACACA"/>
<path d="M287.063 208.361H254.51C254.05 208.362 253.608 208.546 253.283 208.872C252.958 209.198 252.775 209.641 252.776 210.102V261.581H288.802V210.102C288.802 209.873 288.757 209.647 288.67 209.435C288.583 209.224 288.455 209.032 288.293 208.871C288.132 208.709 287.94 208.581 287.729 208.493C287.518 208.406 287.292 208.361 287.063 208.361ZM270.896 237.611C269.878 237.606 268.903 237.199 268.183 236.479C267.463 235.758 267.057 234.782 267.052 233.763V227.825C267.052 226.805 267.457 225.826 268.178 225.104C268.899 224.383 269.877 223.977 270.896 223.977C271.916 223.977 272.893 224.383 273.614 225.104C274.335 225.826 274.74 226.805 274.74 227.825V233.763C274.735 234.782 274.329 235.758 273.609 236.479C272.889 237.199 271.914 237.606 270.896 237.611Z" fill="#2F2E41"/>
<path d="M340.969 128.021H201.816C200.621 128.023 199.475 128.5 198.629 129.346C197.784 130.192 197.308 131.339 197.306 132.536V226.537C197.307 227.734 197.783 228.882 198.628 229.728C199.474 230.575 200.62 231.051 201.816 231.052H340.969C342.164 231.051 343.311 230.575 344.156 229.728C345.002 228.882 345.477 227.734 345.479 226.537V132.536C345.477 131.339 345.001 130.192 344.156 129.346C343.31 128.5 342.164 128.023 340.969 128.021Z" fill="#3F3D56"/>
<path d="M339.805 131.282H202.976C202.336 131.283 201.723 131.539 201.271 131.992C200.818 132.446 200.564 133.06 200.564 133.701V225.372C200.565 226.012 200.82 226.626 201.272 227.078C201.724 227.531 202.337 227.786 202.976 227.787H339.805C340.444 227.786 341.057 227.531 341.509 227.078C341.961 226.626 342.216 226.012 342.217 225.372V133.701C342.217 133.06 341.963 132.446 341.511 131.992C341.058 131.539 340.445 131.283 339.805 131.282Z" fill="white"/>
<path d="M252.664 259.935V264.901C252.665 265.159 252.767 265.405 252.949 265.587C253.131 265.769 253.377 265.872 253.634 265.872H287.944C288.201 265.871 288.447 265.768 288.628 265.586C288.81 265.405 288.913 265.158 288.914 264.901V259.935H252.664Z" fill="#3F3D56"/>
<path d="M313.155 267.601H231.75C231.527 267.601 231.307 267.551 231.106 267.455C230.905 267.359 230.727 267.219 230.587 267.046C230.446 266.873 230.346 266.67 230.294 266.454C230.242 266.237 230.238 266.011 230.284 265.793L231.547 259.787C231.619 259.451 231.804 259.15 232.07 258.933C232.337 258.717 232.669 258.598 233.013 258.597H311.892C312.236 258.598 312.568 258.717 312.835 258.933C313.101 259.15 313.286 259.451 313.357 259.787L314.621 265.793C314.667 266.011 314.663 266.237 314.611 266.454C314.559 266.67 314.459 266.873 314.318 267.046C314.178 267.219 314 267.359 313.799 267.455C313.598 267.551 313.378 267.601 313.155 267.601Z" fill="#2F2E41"/>
<path d="M235.773 259.678H233.916C233.737 259.678 233.591 259.824 233.591 260.004V260.858C233.591 261.038 233.737 261.184 233.916 261.184H235.773C235.952 261.184 236.098 261.038 236.098 260.858V260.004C236.098 259.824 235.952 259.678 235.773 259.678Z" fill="#3F3D56"/>
<path d="M240.787 259.678H238.931C238.751 259.678 238.605 259.824 238.605 260.004V260.858C238.605 261.038 238.751 261.184 238.931 261.184H240.787C240.967 261.184 241.112 261.038 241.112 260.858V260.004C241.112 259.824 240.967 259.678 240.787 259.678Z" fill="#3F3D56"/>
<path d="M245.801 259.678H243.945C243.765 259.678 243.62 259.824 243.62 260.004V260.858C243.62 261.038 243.765 261.184 243.945 261.184H245.801C245.981 261.184 246.127 261.038 246.127 260.858V260.004C246.127 259.824 245.981 259.678 245.801 259.678Z" fill="#3F3D56"/>
<path d="M250.816 259.678H248.959C248.78 259.678 248.634 259.824 248.634 260.004V260.858C248.634 261.038 248.78 261.184 248.959 261.184H250.816C250.996 261.184 251.141 261.038 251.141 260.858V260.004C251.141 259.824 250.996 259.678 250.816 259.678Z" fill="#3F3D56"/>
<path d="M255.83 259.678H253.974C253.794 259.678 253.648 259.824 253.648 260.004V260.858C253.648 261.038 253.794 261.184 253.974 261.184H255.83C256.01 261.184 256.156 261.038 256.156 260.858V260.004C256.156 259.824 256.01 259.678 255.83 259.678Z" fill="#3F3D56"/>
<path d="M260.845 259.678H258.988C258.809 259.678 258.663 259.824 258.663 260.004V260.858C258.663 261.038 258.809 261.184 258.988 261.184H260.845C261.024 261.184 261.17 261.038 261.17 260.858V260.004C261.17 259.824 261.024 259.678 260.845 259.678Z" fill="#3F3D56"/>
<path d="M265.859 259.678H264.003C263.823 259.678 263.677 259.824 263.677 260.004V260.858C263.677 261.038 263.823 261.184 264.003 261.184H265.859C266.039 261.184 266.185 261.038 266.185 260.858V260.004C266.185 259.824 266.039 259.678 265.859 259.678Z" fill="#3F3D56"/>
<path d="M270.874 259.678H269.017C268.837 259.678 268.692 259.824 268.692 260.004V260.858C268.692 261.038 268.837 261.184 269.017 261.184H270.874C271.053 261.184 271.199 261.038 271.199 260.858V260.004C271.199 259.824 271.053 259.678 270.874 259.678Z" fill="#3F3D56"/>
<path d="M275.888 259.678H274.032C273.852 259.678 273.706 259.824 273.706 260.004V260.858C273.706 261.038 273.852 261.184 274.032 261.184H275.888C276.068 261.184 276.213 261.038 276.213 260.858V260.004C276.213 259.824 276.068 259.678 275.888 259.678Z" fill="#3F3D56"/>
<path d="M280.902 259.678H279.046C278.866 259.678 278.721 259.824 278.721 260.004V260.858C278.721 261.038 278.866 261.184 279.046 261.184H280.902C281.082 261.184 281.228 261.038 281.228 260.858V260.004C281.228 259.824 281.082 259.678 280.902 259.678Z" fill="#3F3D56"/>
<path d="M285.917 259.678H284.06C283.881 259.678 283.735 259.824 283.735 260.004V260.858C283.735 261.038 283.881 261.184 284.06 261.184H285.917C286.097 261.184 286.242 261.038 286.242 260.858V260.004C286.242 259.824 286.097 259.678 285.917 259.678Z" fill="#3F3D56"/>
<path d="M290.931 259.678H289.075C288.895 259.678 288.749 259.824 288.749 260.004V260.858C288.749 261.038 288.895 261.184 289.075 261.184H290.931C291.111 261.184 291.257 261.038 291.257 260.858V260.004C291.257 259.824 291.111 259.678 290.931 259.678Z" fill="#3F3D56"/>
<path d="M295.946 259.678H294.089C293.909 259.678 293.764 259.824 293.764 260.004V260.858C293.764 261.038 293.909 261.184 294.089 261.184H295.946C296.125 261.184 296.271 261.038 296.271 260.858V260.004C296.271 259.824 296.125 259.678 295.946 259.678Z" fill="#3F3D56"/>
<path d="M300.96 259.678H299.104C298.924 259.678 298.778 259.824 298.778 260.004V260.858C298.778 261.038 298.924 261.184 299.104 261.184H300.96C301.14 261.184 301.285 261.038 301.285 260.858V260.004C301.285 259.824 301.14 259.678 300.96 259.678Z" fill="#3F3D56"/>
<path d="M305.974 259.678H304.118C303.938 259.678 303.793 259.824 303.793 260.004V260.858C303.793 261.038 303.938 261.184 304.118 261.184H305.974C306.154 261.184 306.3 261.038 306.3 260.858V260.004C306.3 259.824 306.154 259.678 305.974 259.678Z" fill="#3F3D56"/>
<path d="M310.989 259.678H309.133C308.953 259.678 308.807 259.824 308.807 260.004V260.858C308.807 261.038 308.953 261.184 309.133 261.184H310.989C311.169 261.184 311.314 261.038 311.314 260.858V260.004C311.314 259.824 311.169 259.678 310.989 259.678Z" fill="#3F3D56"/>
<path d="M235.713 262.188H233.857C233.677 262.188 233.532 262.334 233.532 262.514V263.368C233.532 263.548 233.677 263.694 233.857 263.694H235.713C235.893 263.694 236.039 263.548 236.039 263.368V262.514C236.039 262.334 235.893 262.188 235.713 262.188Z" fill="#3F3D56"/>
<path d="M240.728 262.188H238.871C238.692 262.188 238.546 262.334 238.546 262.514V263.368C238.546 263.548 238.692 263.694 238.871 263.694H240.728C240.907 263.694 241.053 263.548 241.053 263.368V262.514C241.053 262.334 240.907 262.188 240.728 262.188Z" fill="#3F3D56"/>
<path d="M245.742 262.188H243.886C243.706 262.188 243.56 262.334 243.56 262.514V263.368C243.56 263.548 243.706 263.694 243.886 263.694H245.742C245.922 263.694 246.068 263.548 246.068 263.368V262.514C246.068 262.334 245.922 262.188 245.742 262.188Z" fill="#3F3D56"/>
<path d="M250.757 262.188H248.9C248.721 262.188 248.575 262.334 248.575 262.514V263.368C248.575 263.548 248.721 263.694 248.9 263.694H250.757C250.936 263.694 251.082 263.548 251.082 263.368V262.514C251.082 262.334 250.936 262.188 250.757 262.188Z" fill="#3F3D56"/>
<path d="M255.771 262.188H253.915C253.735 262.188 253.589 262.334 253.589 262.514V263.368C253.589 263.548 253.735 263.694 253.915 263.694H255.771C255.951 263.694 256.096 263.548 256.096 263.368V262.514C256.096 262.334 255.951 262.188 255.771 262.188Z" fill="#3F3D56"/>
<path d="M260.785 262.188H258.929C258.749 262.188 258.604 262.334 258.604 262.514V263.368C258.604 263.548 258.749 263.694 258.929 263.694H260.785C260.965 263.694 261.111 263.548 261.111 263.368V262.514C261.111 262.334 260.965 262.188 260.785 262.188Z" fill="#3F3D56"/>
<path d="M265.8 262.188H263.943C263.764 262.188 263.618 262.334 263.618 262.514V263.368C263.618 263.548 263.764 263.694 263.943 263.694H265.8C265.98 263.694 266.125 263.548 266.125 263.368V262.514C266.125 262.334 265.98 262.188 265.8 262.188Z" fill="#3F3D56"/>
<path d="M270.814 262.188H268.958C268.778 262.188 268.632 262.334 268.632 262.514V263.368C268.632 263.548 268.778 263.694 268.958 263.694H270.814C270.994 263.694 271.14 263.548 271.14 263.368V262.514C271.14 262.334 270.994 262.188 270.814 262.188Z" fill="#3F3D56"/>
<path d="M275.829 262.188H273.972C273.793 262.188 273.647 262.334 273.647 262.514V263.368C273.647 263.548 273.793 263.694 273.972 263.694H275.829C276.008 263.694 276.154 263.548 276.154 263.368V262.514C276.154 262.334 276.008 262.188 275.829 262.188Z" fill="#3F3D56"/>
<path d="M280.843 262.188H278.987C278.807 262.188 278.661 262.334 278.661 262.514V263.368C278.661 263.548 278.807 263.694 278.987 263.694H280.843C281.023 263.694 281.168 263.548 281.168 263.368V262.514C281.168 262.334 281.023 262.188 280.843 262.188Z" fill="#3F3D56"/>
<path d="M285.858 262.188H284.001C283.821 262.188 283.676 262.334 283.676 262.514V263.368C283.676 263.548 283.821 263.694 284.001 263.694H285.858C286.037 263.694 286.183 263.548 286.183 263.368V262.514C286.183 262.334 286.037 262.188 285.858 262.188Z" fill="#3F3D56"/>
<path d="M290.872 262.188H289.016C288.836 262.188 288.69 262.334 288.69 262.514V263.368C288.69 263.548 288.836 263.694 289.016 263.694H290.872C291.052 263.694 291.197 263.548 291.197 263.368V262.514C291.197 262.334 291.052 262.188 290.872 262.188Z" fill="#3F3D56"/>
<path d="M295.886 262.188H294.03C293.85 262.188 293.705 262.334 293.705 262.514V263.368C293.705 263.548 293.85 263.694 294.03 263.694H295.886C296.066 263.694 296.212 263.548 296.212 263.368V262.514C296.212 262.334 296.066 262.188 295.886 262.188Z" fill="#3F3D56"/>
<path d="M300.901 262.188H299.044C298.865 262.188 298.719 262.334 298.719 262.514V263.368C298.719 263.548 298.865 263.694 299.044 263.694H300.901C301.081 263.694 301.226 263.548 301.226 263.368V262.514C301.226 262.334 301.081 262.188 300.901 262.188Z" fill="#3F3D56"/>
<path d="M305.915 262.188H304.059C303.879 262.188 303.733 262.334 303.733 262.514V263.368C303.733 263.548 303.879 263.694 304.059 263.694H305.915C306.095 263.694 306.241 263.548 306.241 263.368V262.514C306.241 262.334 306.095 262.188 305.915 262.188Z" fill="#3F3D56"/>
<path d="M310.93 262.188H309.073C308.893 262.188 308.748 262.334 308.748 262.514V263.368C308.748 263.548 308.893 263.694 309.073 263.694H310.93C311.109 263.694 311.255 263.548 311.255 263.368V262.514C311.255 262.334 311.109 262.188 310.93 262.188Z" fill="#3F3D56"/>
<path d="M277.333 265.2H257.926C257.746 265.2 257.601 265.346 257.601 265.526V266.38C257.601 266.56 257.746 266.706 257.926 266.706H277.333C277.513 266.706 277.658 266.56 277.658 266.38V265.526C277.658 265.346 277.513 265.2 277.333 265.2Z" fill="#3F3D56"/>
<path d="M332.929 143.913H204.899C204.766 143.91 204.639 143.855 204.546 143.76C204.453 143.664 204.401 143.536 204.401 143.403C204.401 143.27 204.453 143.142 204.546 143.046C204.639 142.951 204.766 142.896 204.899 142.893H332.929C333.062 142.896 333.189 142.951 333.282 143.046C333.375 143.142 333.428 143.27 333.428 143.403C333.428 143.536 333.375 143.664 333.282 143.76C333.189 143.855 333.062 143.91 332.929 143.913Z" fill="#CACACA"/>
<path d="M213.614 140.291C215.262 140.291 216.598 138.924 216.598 137.238C216.598 135.551 215.262 134.184 213.614 134.184C211.966 134.184 210.631 135.551 210.631 137.238C210.631 138.924 211.966 140.291 213.614 140.291Z" fill="#3F3D56"/>
<path d="M223.922 140.291C225.57 140.291 226.906 138.924 226.906 137.238C226.906 135.551 225.57 134.184 223.922 134.184C222.274 134.184 220.938 135.551 220.938 137.238C220.938 138.924 222.274 140.291 223.922 140.291Z" fill="#3F3D56"/>
<path d="M234.23 140.291C235.878 140.291 237.213 138.924 237.213 137.238C237.213 135.551 235.878 134.184 234.23 134.184C232.582 134.184 231.246 135.551 231.246 137.238C231.246 138.924 232.582 140.291 234.23 140.291Z" fill="#3F3D56"/>
<path d="M326.723 134.941H319.401C319.256 134.944 319.118 135.003 319.016 135.107C318.914 135.211 318.857 135.35 318.857 135.496C318.857 135.641 318.914 135.781 319.016 135.884C319.118 135.988 319.256 136.048 319.401 136.051H326.723C326.868 136.048 327.006 135.988 327.108 135.884C327.209 135.781 327.266 135.641 327.266 135.496C327.266 135.35 327.209 135.211 327.108 135.107C327.006 135.003 326.868 134.944 326.723 134.941Z" fill="#3F3D56"/>
<path d="M326.723 137.024H319.401C319.256 137.027 319.118 137.087 319.016 137.19C318.914 137.294 318.857 137.434 318.857 137.579C318.857 137.724 318.914 137.864 319.016 137.968C319.118 138.071 319.256 138.131 319.401 138.134H326.723C326.868 138.131 327.006 138.071 327.108 137.968C327.209 137.864 327.266 137.724 327.266 137.579C327.266 137.434 327.209 137.294 327.108 137.19C327.006 137.087 326.868 137.027 326.723 137.024Z" fill="#3F3D56"/>
<path d="M326.723 139.105H319.401C319.256 139.108 319.118 139.167 319.016 139.271C318.914 139.375 318.857 139.514 318.857 139.66C318.857 139.805 318.914 139.944 319.016 140.048C319.118 140.152 319.256 140.212 319.401 140.215H326.723C326.868 140.212 327.006 140.152 327.108 140.048C327.209 139.944 327.266 139.805 327.266 139.66C327.266 139.514 327.209 139.375 327.108 139.271C327.006 139.167 326.868 139.108 326.723 139.105Z" fill="#3F3D56"/>
<path d="M279.141 173.689H263.143C261.942 173.689 260.968 174.664 260.968 175.867V175.867C260.968 177.07 261.942 178.045 263.143 178.045H279.141C280.343 178.045 281.317 177.07 281.317 175.867V175.867C281.317 174.664 280.343 173.689 279.141 173.689Z" fill="#885CD0"/>
<path d="M289.476 182.401H252.808C251.607 182.401 250.633 183.376 250.633 184.579V184.579C250.633 185.782 251.607 186.757 252.808 186.757H289.476C290.678 186.757 291.652 185.782 291.652 184.579C291.652 183.376 290.678 182.401 289.476 182.401Z" fill="#E6E6E6"/>
<path d="M289.476 191.114H252.808C251.607 191.114 250.633 192.089 250.633 193.292C250.633 194.494 251.607 195.47 252.808 195.47H289.476C290.678 195.47 291.652 194.494 291.652 193.292C291.652 192.089 290.678 191.114 289.476 191.114Z" fill="#E6E6E6"/>
<path d="M206.149 274.153H166.156C164.742 274.153 163.386 274.715 162.386 275.716C161.386 276.717 160.824 278.075 160.824 279.491C160.824 280.906 161.386 282.264 162.386 283.265C163.386 284.266 164.742 284.829 166.156 284.829H180.82V326.199H191.485V284.829H206.149C207.564 284.829 208.92 284.266 209.92 283.265C210.92 282.264 211.482 280.906 211.482 279.491C211.482 278.075 210.92 276.717 209.92 275.716C208.92 274.715 207.564 274.153 206.149 274.153Z" fill="#3F3D56"/>
<path d="M232.546 349.111H125.575C115.205 349.073 105.194 345.302 97.3723 338.486C89.5502 331.67 84.4387 322.264 82.9714 311.987L79.1849 298.044C71.3476 269.152 59.4099 241.534 43.7367 216.035C36.573 204.389 32.8859 193.116 41.2606 182.262C41.3319 182.169 41.402 182.078 41.4709 181.988C48.1879 173.236 81.6204 171.342 92.5192 170.973C92.9498 170.958 93.382 170.951 93.8159 170.951H160.351C160.785 170.951 161.217 170.959 161.647 170.973C167.522 171.145 173.242 172.905 178.198 176.068C183.155 179.23 187.164 183.677 189.8 188.937C192.612 194.306 193.92 200.338 193.585 206.391C193.25 212.445 191.284 218.295 187.896 223.321C164.524 258.466 157.369 280.503 164.695 294.775C171.781 308.579 193.503 315.636 233.055 316.985C243.684 317.347 248.562 325.632 248.597 333.177C248.63 340.527 243.94 348.641 233.564 349.09C233.227 349.104 232.887 349.111 232.546 349.111Z" fill="#3F3D56"/>
<path d="M143.747 444.196H183.74C185.155 444.196 186.511 443.634 187.511 442.633C188.511 441.632 189.073 440.274 189.073 438.858C189.073 437.442 188.511 436.085 187.511 435.084C186.511 434.082 185.155 433.52 183.74 433.52H169.076V343.439H158.411V433.52H143.747C142.333 433.52 140.977 434.082 139.977 435.084C138.976 436.085 138.415 437.442 138.415 438.858C138.415 440.274 138.976 441.632 139.977 442.633C140.977 443.634 142.333 444.196 143.747 444.196Z" fill="#3F3D56"/>
<path d="M140.553 174.295L141.391 179.395C141.788 181.868 143.224 199.337 142.16 201.421C142.066 197.53 134.828 191.412 130.138 192.809L122.778 194.446L118.21 195.463L114.492 196.279L103.687 198.642C103.668 198.517 103.655 198.383 103.636 198.258C103.61 198.099 103.585 197.941 103.553 197.784C103.352 196.77 102.985 195.796 102.467 194.901C102.412 196.1 102.059 197.265 101.439 198.292C101.422 198.319 101.407 198.347 101.395 198.376C101.203 198.687 100.991 198.985 100.761 199.269C100.75 199.276 100.74 199.285 100.732 199.295C100.732 199.295 98.512 163.87 98.7446 163.543C98.9148 163.311 99.0863 163.085 99.2657 162.864C99.4438 162.637 99.6167 162.418 99.8027 162.196C99.8265 162.175 99.8467 162.15 99.8625 162.122C100.383 161.505 100.935 160.915 101.515 160.354C101.685 160.189 101.862 160.024 102.039 159.858C104.742 157.354 107.972 155.49 111.49 154.401C111.887 154.279 112.299 154.167 112.719 154.054C113.133 153.949 113.554 153.849 113.979 153.762L114.122 153.732C114.325 153.691 114.535 153.654 114.739 153.62C114.995 153.574 115.252 153.535 115.504 153.504C118.778 153.032 122.113 153.219 125.312 154.055C125.319 154.054 125.32 154.061 125.327 154.059C127.998 154.758 130.537 155.89 132.843 157.41C136.831 160.046 138.383 164.346 139.486 169.174C139.872 170.831 140.198 172.556 140.553 174.295Z" fill="#2F2E41"/>
<path d="M179.945 407.88L186.834 411.627L205.073 386.383L194.904 380.854L179.945 407.88Z" fill="#FFB6B6"/>
<path d="M183.261 398.885L195.768 402.806L193.778 408.051L202.354 420.512C202.778 421.127 202.994 421.862 202.971 422.609C202.948 423.356 202.687 424.076 202.226 424.664C201.765 425.252 201.128 425.678 200.409 425.878C199.69 426.078 198.925 426.043 198.227 425.777L183.667 420.24L183.127 414.097L180.178 418.913L174.688 416.825L183.261 398.885Z" fill="#2F2E41"/>
<path d="M218.969 294.971C217.87 295.239 216.725 295.263 215.615 295.04C214.505 294.817 213.458 294.353 212.547 293.681C211.635 293.01 210.882 292.146 210.341 291.151C209.799 290.156 209.482 289.055 209.411 287.924L150.647 266.761L161.431 257.366L217.207 279.597C219.112 279.604 220.949 280.311 222.369 281.584C223.788 282.856 224.692 284.606 224.91 286.501C225.127 288.396 224.642 290.305 223.547 291.866C222.452 293.427 220.823 294.532 218.969 294.971Z" fill="#FFB6B6"/>
<path d="M134.231 214.332C134.231 214.332 124.333 214.55 123.453 225.861C122.573 237.173 144.169 265.151 147.515 269.765C150.861 274.379 188.026 280.058 188.026 280.058L200.66 270.876C187.385 262.265 175.269 255.663 167.139 255.96L134.231 214.332Z" fill="#885CD0"/>
<path d="M122.092 264.242L124.504 274.615C124.504 274.615 124.528 284.18 126.22 285.944C127.9 287.699 164.85 284.175 164.85 284.175C164.85 284.175 160.932 268.761 160.985 257.098L122.092 264.242Z" fill="#FFB6B6"/>
<path d="M200.15 396.929L186.819 389.589C186.566 372.224 197 348.724 209.375 324.109C181.698 328.874 155.587 330.401 133.002 324.636C129.294 323.656 126.121 321.255 124.167 317.951C122.214 314.648 121.637 310.708 122.562 306.982C122.65 306.616 122.751 306.254 122.867 305.896C125.57 297.641 119.509 292.466 125.084 283.385C139.745 278.373 153.673 276.957 166.41 281.384L174.39 299.047L213.945 293.923C215.856 293.694 217.794 293.847 219.646 294.371C221.498 294.895 223.228 295.781 224.736 296.978C226.244 298.175 227.501 299.658 228.434 301.344C229.367 303.029 229.957 304.882 230.171 306.797C230.225 307.227 230.259 307.658 230.276 308.092C222.278 345.627 213.309 379.401 200.15 396.929Z" fill="#2F2E41"/>
<path d="M123.924 192.559C132.87 190.727 138.638 181.981 136.808 173.026C134.977 164.07 126.241 158.296 117.295 160.128C108.349 161.961 102.581 170.706 104.411 179.662C106.242 188.617 114.978 194.392 123.924 192.559Z" fill="#FFB6B6"/>
<path d="M116.723 198.567L131.961 197.667C132.603 197.629 133.242 197.792 133.787 198.135C134.332 198.477 134.757 198.982 135.003 199.577L139.309 210.028L157.206 224.836C157.206 224.836 164.292 233.863 164.309 245.52C164.325 257.178 166.823 284.162 166.823 284.162C166.823 284.162 156.481 269.589 150.098 273.465C149.012 274.125 148.63 275.473 147.493 276.154C146.925 276.494 145.614 276.164 145.041 276.504C136.246 281.731 127.073 286.838 126.215 285.943C124.533 284.185 122.491 275.201 122.491 275.201L108.543 223.897C107.787 221.198 107.636 218.364 108.103 215.6C108.57 212.836 109.642 210.209 111.242 207.908C112.216 206.535 113.237 205.513 114.186 205.344C116.317 204.89 115.183 200.11 116.723 198.567Z" fill="#885CD0"/>
<path d="M246.347 429.612L252.779 425.135L238.208 397.615L228.715 404.222L246.347 429.612Z" fill="#FFB6B6"/>
<path d="M247.319 411.146L237.238 420.166C221.209 402.287 209.092 377.211 198.823 348.734C171.917 340.845 151.626 328.123 133.912 313.018C127.903 307.927 123.399 301.388 128.524 295.187C128.763 294.898 129.013 294.617 129.274 294.346C135.325 288.121 150.671 289.307 159.659 283.604L179.736 305.087L178.473 310.847L216.185 323.635C218 324.272 219.67 325.261 221.101 326.548C222.531 327.834 223.693 329.391 224.519 331.129C225.346 332.867 225.82 334.751 225.915 336.674C226.011 338.596 225.725 340.519 225.074 342.33C224.933 342.739 224.774 343.142 224.598 343.538L247.319 411.146Z" fill="#2F2E41"/>
<path d="M242.597 427.797L252.893 419.68L256.093 424.287L271.209 424.241C271.955 424.239 272.683 424.475 273.286 424.916C273.889 425.358 274.335 425.98 274.559 426.693C274.783 427.406 274.774 428.172 274.533 428.879C274.292 429.586 273.831 430.198 273.218 430.624L260.429 439.524L255.06 436.501L257.364 441.657L252.542 445.012L242.597 427.797Z" fill="#2F2E41"/>
<path d="M139.224 327.863C138.183 327.42 137.25 326.754 136.494 325.912C135.737 325.069 135.173 324.071 134.844 322.987C134.514 321.904 134.425 320.761 134.584 319.639C134.744 318.517 135.147 317.444 135.765 316.495L101.268 264.38L115.523 263.296L146.986 314.479C148.51 315.625 149.561 317.29 149.94 319.159C150.319 321.029 150 322.972 149.043 324.622C148.087 326.272 146.559 327.513 144.749 328.11C142.939 328.707 140.974 328.619 139.224 327.863Z" fill="#FFB6B6"/>
<path d="M119.39 212.518C119.39 212.518 111.322 206.774 103.867 215.319C96.4109 223.864 97.0335 259.216 96.9634 264.917C96.9415 266.702 99.5166 270.554 103.064 275.004C104.657 277.001 106.446 279.119 108.284 281.225C109.348 282.443 108.431 284.979 109.499 286.163C110.561 287.341 113.608 287.167 114.618 288.26C119.413 293.449 123.309 297.398 123.309 297.398L138.92 297.59C139.096 285.973 131.149 275.603 120.939 265.581L119.39 212.518Z" fill="#885CD0"/>
<path d="M141.274 168.303C140.663 168.606 140.069 168.898 139.486 169.174C137.146 170.325 134.728 171.31 132.25 172.12C131.838 170.997 131.209 169.967 130.399 169.087C130.606 170.302 130.501 171.55 130.092 172.712C126.341 173.642 122.404 173.49 118.736 172.273C121.134 176.72 122.907 186.089 122.778 194.446C122.722 198.864 122.124 202.998 120.82 205.969L119.143 200.864C118.988 199.04 118.676 197.233 118.21 195.463C117.086 190.497 116.036 193.817 114.492 196.279L103.687 198.642C103.668 198.517 103.655 198.383 103.636 198.258C103.61 198.099 103.585 197.941 103.553 197.784C103.352 196.77 102.985 195.796 102.467 194.901C102.412 196.1 102.059 197.265 101.439 198.292C101.422 198.319 101.407 198.347 101.395 198.376C101.203 198.687 100.991 198.985 100.761 199.269C100.75 199.276 100.74 199.285 100.732 199.295C93.7565 200.23 88.8666 164.22 98.7459 163.55C99.0331 163.53 99.0877 163.092 99.2657 162.864C99.4438 162.637 99.6167 162.418 99.8027 162.196C99.8265 162.175 99.8467 162.15 99.8625 162.122C100.39 161.51 100.937 160.921 101.515 160.354C101.685 160.189 101.862 160.024 102.039 159.858C104.751 157.367 107.978 155.505 111.491 154.407C111.888 154.285 112.299 154.167 112.719 154.054C113.133 153.949 113.554 153.849 113.979 153.762L114.122 153.732C114.325 153.691 114.535 153.654 114.739 153.619C114.995 153.574 115.252 153.535 115.504 153.504C116.451 153.981 117.261 154.692 117.859 155.569L124.761 154.155C124.944 154.117 125.128 154.086 125.314 154.062L125.327 154.059C133.944 152.614 139.485 159.55 141.274 168.303Z" fill="#2F2E41"/>
<path d="M103.654 161.937C102.176 163.005 100.622 164.105 98.8182 164.37C97.0147 164.634 94.9034 163.762 94.4043 162.007C93.7941 159.861 95.7296 157.907 97.4692 156.513L102.986 152.091C103.996 151.194 105.136 150.456 106.368 149.902C106.986 149.629 107.658 149.499 108.334 149.522C109.009 149.545 109.671 149.719 110.27 150.032C110.863 150.433 111.343 150.979 111.666 151.618C111.988 152.258 112.142 152.969 112.112 153.684C112.033 155.119 111.56 156.503 110.745 157.685C109.721 159.283 108.385 160.657 106.817 161.724C105.248 162.791 103.481 163.53 101.62 163.895" fill="#2F2E41"/>
<path d="M145.493 276.822H105.5C104.086 276.822 102.729 277.384 101.729 278.385C100.729 279.386 100.167 280.744 100.167 282.16C100.167 283.576 100.729 284.933 101.729 285.934C102.729 286.936 104.086 287.498 105.5 287.498H120.164V328.868H130.829V287.498H145.493C146.907 287.498 148.264 286.936 149.264 285.934C150.264 284.933 150.825 283.576 150.825 282.16C150.825 280.744 150.264 279.386 149.264 278.385C148.264 277.384 146.907 276.822 145.493 276.822Z" fill="#3F3D56"/>
<path d="M293.244 446.128L0.793648 446.333C0.583556 446.332 0.382282 446.248 0.233939 446.099C0.0855963 445.95 0.00228882 445.748 0.00228882 445.538C0.00228882 445.328 0.0855963 445.126 0.233939 444.977C0.382282 444.828 0.583556 444.744 0.793648 444.744L293.244 444.539C293.454 444.539 293.655 444.623 293.804 444.772C293.952 444.921 294.035 445.123 294.035 445.333C294.035 445.543 293.952 445.745 293.804 445.894C293.655 446.043 293.454 446.127 293.244 446.128Z" fill="#CACACA"/>
<path d="M378.35 357.505L384.86 364.607L415.324 342.849L405.715 332.366L378.35 357.505Z" fill="#A0616A"/>
<path d="M391.825 367.556V367.55L391.165 360.457L390.865 360.316L389.112 359.482L380.84 355.566L380.666 355.379L379.007 353.564L369.815 362.011L382.266 375.597L390.805 384.912L391.091 384.645C392.261 383.572 393.209 382.278 393.879 380.838C394.549 379.398 394.929 377.84 394.997 376.253C395.065 374.666 394.82 373.081 394.276 371.588C393.731 370.096 392.898 368.726 391.825 367.556Z" fill="#2F2E41"/>
<path d="M344.62 428.358L353.833 431.16L369.013 396.917L355.415 392.782L344.62 428.358Z" fill="#A0616A"/>
<path d="M368.475 436.024C367.733 434.62 366.718 433.378 365.492 432.37C364.265 431.362 362.85 430.608 361.33 430.152L357.15 424.381L356.824 424.407L345.779 425.422L345.532 425.348L343.186 424.634L339.56 436.585L369.268 445.62L369.382 445.239C369.845 443.719 370.004 442.123 369.848 440.541C369.693 438.96 369.226 437.425 368.475 436.024Z" fill="#2F2E41"/>
<path d="M420.594 249.068C420.594 249.068 479.418 305.924 442.23 323.523H430.736C430.736 323.523 427.282 311.239 419.374 300.879C418.288 299.457 414.22 299.746 413.09 298.359C406.192 289.894 398.713 282.623 393.548 282.912L394.784 322.196L396.784 336.208C397.834 343.452 368.2 406.7 368.2 406.7L349.575 399.372C349.575 399.372 368.98 347.278 369.208 339.768L353.656 257.191L420.594 249.068Z" fill="#2F2E41"/>
<path d="M425.499 251.873C425.199 252.301 424.807 252.656 424.352 252.914C423.603 253.338 422.791 253.64 421.946 253.808C408.702 256.817 365.436 263.056 354.204 260.08C352.825 259.72 351.925 259.213 351.631 258.545C350.692 256.437 350.812 247.529 351.365 236.772C351.465 234.757 353.684 232.575 353.818 230.467C353.911 228.885 351.918 227.397 352.025 225.789C352.758 214.913 353.704 203.83 354.338 196.823C354.738 192.319 355.011 189.503 355.011 189.503L348.179 146.378L348.499 145.851L348.859 145.671L370.888 134.754L372.088 131.685C372.436 130.801 373.04 130.042 373.823 129.505C374.606 128.969 375.532 128.68 376.48 128.675L390.991 128.615C391.744 128.611 392.487 128.787 393.158 129.128C393.83 129.47 394.41 129.966 394.851 130.577L398.783 136.029L424.779 152.71L424.679 153.017L412.481 190.177L412.421 193.073V193.08L411.968 216.367L413.228 219.524L411.808 224.702C411.808 224.702 412.461 230.754 415.96 235.251C419.133 239.335 423.173 243.592 424.999 247.048V247.055C426.012 248.963 426.352 250.618 425.499 251.873Z" fill="#885CD0"/>
<path d="M445.055 320.146L441.91 324.123C441.91 324.123 412.993 344.376 412 346.268L407.43 350.597L396.372 338.764L402.123 331.549C406.724 325.775 412.67 321.218 419.439 318.277L428.252 310.45L445.055 320.146Z" fill="#2F2E41"/>
<path d="M426.68 263.303L421.414 212.277L420.024 191.277L434.764 188.609C434.764 188.609 434.18 203.625 436.11 212.097C438.016 220.457 436.363 262.183 436.245 263.299C437.328 264.268 438.091 265.543 438.434 266.955C438.776 268.368 438.683 269.851 438.165 271.209C437.647 272.568 436.73 273.736 435.534 274.561C434.338 275.386 432.921 275.828 431.469 275.829C430.017 275.829 428.599 275.389 427.402 274.565C426.206 273.741 425.287 272.573 424.768 271.216C424.249 269.858 424.154 268.375 424.495 266.962C424.837 265.549 425.599 264.273 426.68 263.303Z" fill="#A0616A"/>
<path d="M441.058 222.851L422.113 226.777L420.456 220.166L418.525 218.115L414.667 197.881L409.131 186.029L410.57 145.496L424.63 152.961L424.647 152.974C426.798 155.311 428.28 158.656 430.744 162.012C438.509 172.587 439.371 198.284 439.136 212.36C439.132 212.591 439.364 212.835 439.643 213.091C440.965 214.307 441.828 215.941 442.085 217.719C442.343 219.497 441.98 221.31 441.058 222.851Z" fill="#885CD0"/>
<path d="M340.892 265.305L346.158 214.279L347.548 193.278L332.808 190.61C332.808 190.61 333.392 205.627 331.461 214.099C329.556 222.459 331.209 264.185 331.326 265.301C330.244 266.27 329.481 267.545 329.138 268.957C328.795 270.37 328.889 271.853 329.407 273.211C329.924 274.569 330.842 275.738 332.038 276.563C333.233 277.388 334.651 277.83 336.103 277.83C337.555 277.831 338.973 277.391 340.17 276.567C341.366 275.743 342.285 274.575 342.804 273.218C343.323 271.86 343.418 270.377 343.076 268.964C342.735 267.551 341.973 266.275 340.892 265.305Z" fill="#A0616A"/>
<path d="M358.444 188.029L354.338 196.823L352.905 199.886L349.045 220.117L347.119 222.166L345.459 228.779L344.679 228.618L330.615 225.702L326.516 224.855C325.592 223.314 325.228 221.501 325.485 219.722C325.743 217.943 326.606 216.308 327.929 215.093C328.209 214.839 328.442 214.592 328.435 214.359C328.202 200.286 329.062 174.59 336.827 164.014C339.293 160.657 340.773 157.314 342.926 154.979C342.933 154.972 342.933 154.966 342.94 154.966L348.179 146.378L348.499 145.851L348.859 145.671L358.444 188.029Z" fill="#885CD0"/>
<path d="M383.317 124.48C393.98 124.48 402.624 115.827 402.624 105.152C402.624 94.4777 393.98 85.8243 383.317 85.8243C372.654 85.8243 364.01 94.4777 364.01 105.152C364.01 115.827 372.654 124.48 383.317 124.48Z" fill="#A0616A"/>
<path d="M405.022 96.6733C404.956 93.377 404.582 89.1599 402.276 85.7969C400.33 82.9677 396.404 80.7257 392.744 81.8467C392.785 81.1142 392.623 80.3846 392.274 79.7391C391.926 79.0935 391.406 78.5573 390.771 78.1901C389.385 77.3426 387.718 77.1892 386.245 77.0491C382.533 76.7021 378.687 76.3418 374.927 77.0557C370.708 77.8564 367.255 80.0317 365.462 83.0277L365.422 83.1212L365.056 84.8961C365.007 85.1341 364.907 85.3588 364.763 85.5546C364.619 85.7504 364.435 85.9127 364.223 86.0304C364.01 86.1499 363.774 86.2207 363.53 86.238C363.287 86.2553 363.043 86.2186 362.816 86.1305C362.567 86.0371 362.298 86.0104 362.036 86.0528C361.774 86.0953 361.527 86.2055 361.321 86.3727C361.114 86.5398 360.954 86.7581 360.858 87.0058C360.761 87.2536 360.731 87.5223 360.77 87.7854L360.87 88.4927L359.81 88.2925C359.544 88.2409 359.269 88.2614 359.013 88.3518C358.758 88.4422 358.531 88.5992 358.357 88.8066C358.182 89.0141 358.066 89.2644 358.02 89.5318C357.974 89.7992 358.001 90.0739 358.097 90.3277L358.39 91.1351C358.171 91.138 357.955 91.185 357.755 91.2732C357.554 91.3615 357.374 91.4892 357.224 91.6489C357.01 91.8815 356.875 92.1761 356.839 92.4903C356.803 92.8045 356.868 93.122 357.024 93.3971C358.212 95.4269 359.895 97.1214 361.916 98.3215C362.825 98.8696 363.805 99.2895 364.829 99.5693C365.042 99.6293 365.262 99.6827 365.489 99.7294C373.673 101.495 382.11 101.748 390.385 100.477C389.897 102.111 389.71 103.82 389.831 105.521C390.098 107.65 391.345 109.405 393.011 109.992C393.388 110.12 393.777 110.214 394.171 110.272C394.548 110.333 394.921 110.425 395.284 110.546C395.82 110.742 396.295 111.077 396.66 111.516C397.025 111.956 397.268 112.484 397.364 113.047C397.46 113.61 397.406 114.189 397.207 114.725C397.008 115.26 396.671 115.734 396.23 116.097C396.23 116.097 397.977 117.545 398.197 117.472C399.055 117.092 399.773 116.453 400.25 115.644C403.576 110.853 405.182 104.474 405.022 96.6733Z" fill="#2F2E41"/>
</g>
<defs>
<clipPath id="clip0_44_252">
<rect width="516" height="447" fill="white"/>
</clipPath>
</defs>
</svg>
