<svg width="41" height="39" viewBox="0 0 41 39" fill="none" xmlns="http://www.w3.org/2000/svg">
<g clip-path="url(#clip0_18_29)">
<path d="M12.1593 6.59048C11.9178 8.29882 11.6179 9.98658 11.2268 11.6631C10.4859 14.8389 8.4836 16.7034 5.24848 17.4051C3.73886 17.7326 2.22178 18.0032 0.691628 18.2125C0.516176 18.2365 0.341445 18.2655 0 18.3175C1.78877 18.5715 3.39845 18.8514 5.00454 19.1636C8.61725 19.8659 10.6644 22.0027 11.3646 25.4784C11.6673 26.9815 11.9567 28.4848 12.2182 30.017C12.2939 29.5282 12.3699 29.0395 12.4453 28.5507C12.6334 27.3305 12.8927 26.1253 13.1744 24.9216C13.905 21.7997 15.8799 19.9523 19.0649 19.2439C20.7747 18.8636 22.4991 18.5813 24.3066 18.3337C22.8928 18.0941 21.5501 17.8843 20.2151 17.6353C18.8434 17.3793 17.5039 17.0126 16.2876 16.3135C14.5279 15.3021 13.724 13.6613 13.2144 11.8361C12.7606 10.2108 12.4978 8.54976 12.2696 6.88291C12.2561 6.78461 12.3052 6.65973 12.1593 6.59048Z" fill="#412B6D" stroke="#412B6D"/>
<path d="M41 26.2455C39.048 25.9881 37.2541 25.6931 35.4801 25.2697C32.4073 24.5362 30.5772 22.6629 29.85 19.6849C29.4379 17.9972 29.1478 16.2918 28.876 14.3955C28.7114 15.407 28.5789 16.2444 28.4384 17.0806C28.2493 18.2052 27.9864 19.3126 27.6605 20.4084C26.8423 23.1599 24.8709 24.6454 22.107 25.3047C20.3879 25.7148 18.6482 26.0002 16.8846 26.2906C17.5698 26.3923 18.2569 26.4829 18.9397 26.5978C20.6955 26.8932 22.4517 27.1836 24.0938 27.9125C26.2528 28.8708 27.2743 30.6515 27.8521 32.7675C28.2824 34.3431 28.5399 35.9495 28.773 37.5607C28.792 37.6916 28.8194 37.8213 28.874 38.1241C29.1285 36.3939 29.4197 34.8485 29.7278 33.3045C30.467 29.6 32.8419 27.642 36.5498 27.0003C37.9202 26.7631 39.2856 26.5017 40.6674 26.3332C40.7318 26.3253 40.7941 26.3005 41 26.2455Z" fill="#412B6D" stroke="#412B6D"/>
<path d="M15.9592 8.32403C16.8934 8.48446 17.8304 8.67316 18.776 8.80271C22.0095 9.24575 23.5877 11.1858 24.0036 14.2101C24.107 14.9615 24.2548 15.7071 24.4109 16.6241C24.5395 15.856 24.6381 15.2431 24.7453 14.6317C24.9001 13.7487 25.1103 12.88 25.4206 12.0339C26.0635 10.2806 27.4571 9.427 29.2124 8.99596C30.2803 8.73374 31.3617 8.54446 32.4541 8.41124C32.5865 8.39509 32.7165 8.36001 32.8759 8.32801C31.8519 8.14578 30.872 7.94863 29.8844 7.79996C26.9621 7.36005 25.3691 5.66627 24.9112 2.87081C24.7632 1.9675 24.5887 1.06833 24.3962 -7.62939e-06C24.2189 1.24297 24.01 2.31076 23.7929 3.37791C23.2723 5.93706 21.6387 7.32451 19.0679 7.77511C18.0315 7.95676 16.9956 8.14095 15.9592 8.32403Z" fill="#412B6D" stroke="#412B6D"/>
<path d="M18.0718 28.0111C17.9091 28.8354 17.7707 29.4962 17.6491 30.16C17.3228 31.9413 16.1812 32.8897 14.4035 33.1962C13.7632 33.3066 13.1232 33.4188 12.3399 33.555C13.3502 33.7104 14.2169 33.8421 15.0668 34.069C16.4065 34.4268 17.2066 35.2667 17.5544 36.5577C17.765 37.3393 17.8942 38.1357 18.1039 39C18.1041 35.3689 19.9859 33.6127 23.6268 33.5262C23.4257 33.4946 23.2244 33.464 23.0236 33.431C22.8039 33.3949 22.5836 33.3614 22.3653 33.3184C19.3899 32.7323 18.6313 31.9408 18.2229 29.0022C18.1842 28.724 18.1385 28.4468 18.0718 28.0111Z" fill="#412B6D" stroke="#412B6D"/>
<path d="M2.91571 30.2147C4.49621 30.2628 5.29027 31.0321 5.32388 32.5624C5.79177 30.6494 5.90987 30.5355 7.77544 30.1972C6.24539 30.145 5.39439 29.4344 5.35753 27.8501C5.2878 29.392 4.50067 30.1713 2.91571 30.2147Z" fill="#412B6D" stroke="#412B6D"/>
<path d="M33.7563 15.4639C35.3164 15.5254 36.0577 16.304 36.139 17.7912C36.2141 16.2696 36.9995 15.519 38.5612 15.4654C37.0421 15.3855 36.1881 14.6941 36.1453 13.1275C36.0747 14.6453 35.2842 15.3979 33.7563 15.4639Z" fill="#412B6D" stroke="#412B6D"/>
</g>
<defs>
<clipPath id="clip0_18_29">
<rect width="41" height="39" fill="white" transform="matrix(1 0 0 -1 0 39)"/>
</clipPath>
</defs>
</svg>
