<svg width="290" height="290" viewBox="0 0 290 290" fill="none" xmlns="http://www.w3.org/2000/svg">
<rect x="144.957" y="6.00183" width="20.5122" height="20.5122" transform="rotate(45 144.957 6.00183)" fill="#ccc"/>
<rect x="176.07" y="37.1145" width="20.5122" height="20.5122" transform="rotate(45 176.07 37.1145)" fill="#ccc"/>
<rect x="207.182" y="68.2272" width="20.5122" height="20.5122" transform="rotate(45 207.182 68.2272)" fill="#ccc"/>
<rect x="238.295" y="99.34" width="20.5122" height="20.5122" transform="rotate(45 238.295 99.34)" fill="#ccc"/>
<rect x="269.408" y="130.453" width="20.5122" height="20.5122" transform="rotate(45 269.408 130.453)" fill="#ccc"/>
<rect x="113.844" y="37.1145" width="20.5122" height="20.5122" transform="rotate(45 113.844 37.1145)" fill="#ccc"/>
<rect x="144.957" y="68.2272" width="20.5122" height="20.5122" transform="rotate(45 144.957 68.2272)" fill="#ccc"/>
<rect x="176.07" y="99.3398" width="20.5122" height="20.5122" transform="rotate(45 176.07 99.3398)" fill="#ccc"/>
<rect x="207.182" y="130.453" width="20.5122" height="20.5122" transform="rotate(45 207.182 130.453)" fill="#ccc"/>
<rect x="238.295" y="161.565" width="20.5122" height="20.5122" transform="rotate(45 238.295 161.565)" fill="#ccc"/>
<rect x="82.7315" y="68.2272" width="20.5122" height="20.5122" transform="rotate(45 82.7315 68.2272)" fill="#ccc"/>
<rect x="113.844" y="99.3398" width="20.5122" height="20.5122" transform="rotate(45 113.844 99.3398)" fill="#ccc"/>
<rect x="144.957" y="130.453" width="20.5122" height="20.5122" transform="rotate(45 144.957 130.453)" fill="#ccc"/>
<rect x="176.07" y="161.565" width="20.5122" height="20.5122" transform="rotate(45 176.07 161.565)" fill="#ccc"/>
<rect x="207.182" y="192.678" width="20.5122" height="20.5122" transform="rotate(45 207.182 192.678)" fill="#ccc"/>
<rect x="51.6188" y="99.34" width="20.5122" height="20.5122" transform="rotate(45 51.6188 99.34)" fill="#ccc"/>
<rect x="82.7315" y="130.453" width="20.5122" height="20.5122" transform="rotate(45 82.7315 130.453)" fill="#ccc"/>
<rect x="113.844" y="161.565" width="20.5122" height="20.5122" transform="rotate(45 113.844 161.565)" fill="#ccc"/>
<rect x="144.957" y="192.678" width="20.5122" height="20.5122" transform="rotate(45 144.957 192.678)" fill="#ccc"/>
<rect x="176.07" y="223.791" width="20.5122" height="20.5122" transform="rotate(45 176.07 223.791)" fill="#ccc"/>
<rect x="20.5061" y="130.453" width="20.5122" height="20.5122" transform="rotate(45 20.5061 130.453)" fill="#ccc"/>
<rect x="51.6188" y="161.565" width="20.5122" height="20.5122" transform="rotate(45 51.6188 161.565)" fill="#ccc"/>
<rect x="82.7315" y="192.678" width="20.5122" height="20.5122" transform="rotate(45 82.7315 192.678)" fill="#ccc"/>
<rect x="113.844" y="223.791" width="20.5122" height="20.5122" transform="rotate(45 113.844 223.791)" fill="#ccc"/>
<rect x="144.957" y="254.903" width="20.5122" height="20.5122" transform="rotate(45 144.957 254.903)" fill="#ccc"/>
</svg>
